<svg id="svg" version="1.1" xmlns="http://www.w3.org/2000/svg" xmlns:xlink="http://www.w3.org/1999/xlink" width="400" height="400" viewBox="0, 0, 400,400"><g id="svgg"><path id="path0" d="M113.586 162.090 C 113.570 277.716,113.709 270.408,111.425 276.054 C 110.538 278.248,109.227 279.992,103.876 286.099 C 100.314 290.164,92.371 299.229,86.224 306.245 C 80.078 313.260,74.228 319.907,73.224 321.015 C 71.526 322.890,70.159 324.461,68.200 326.787 C 65.571 329.910,72.890 322.666,113.319 282.132 L 158.200 237.136 158.400 223.068 L 158.600 209.000 170.100 208.894 C 176.425 208.835,181.600 208.915,181.600 209.071 C 181.600 209.457,178.620 214.478,176.699 217.331 C 174.729 220.255,175.026 220.638,177.498 218.361 C 178.549 217.392,181.557 214.620,184.184 212.200 C 195.576 201.705,195.417 201.863,209.623 186.849 C 220.771 175.066,225.986 169.413,225.993 169.102 C 225.997 168.939,210.835 168.759,192.300 168.702 L 158.600 168.600 158.498 131.908 L 158.396 95.216 159.358 94.975 C 161.514 94.434,215.288 95.104,218.200 95.709 C 238.311 99.882,243.223 107.227,243.186 133.077 C 243.168 145.424,242.732 147.915,239.934 151.613 C 236.180 156.577,231.200 163.556,231.200 163.854 C 231.200 164.039,241.865 153.559,254.900 140.564 C 267.935 127.569,280.715 115.176,283.300 113.024 C 288.333 108.833,288.413 108.696,287.627 105.646 C 287.423 104.851,287.048 103.120,286.796 101.800 C 286.302 99.218,286.079 98.404,284.764 94.400 C 278.952 76.707,263.076 63.301,243.000 59.134 C 241.900 58.906,240.280 58.557,239.400 58.359 C 235.255 57.424,230.321 56.602,224.800 55.927 C 222.666 55.665,201.324 55.449,167.500 55.345 L 113.600 55.181 113.586 162.090 M265.459 146.341 C 212.706 199.095,196.478 215.544,196.992 215.741 C 197.362 215.884,201.656 216.000,206.533 216.001 C 217.132 216.002,225.069 216.739,231.600 218.331 C 238.461 220.003,244.825 226.697,247.753 235.321 C 251.581 246.598,251.319 274.585,247.260 287.874 C 244.713 296.214,236.771 303.129,227.400 305.169 C 226.080 305.457,224.460 305.832,223.800 306.003 C 219.562 307.104,214.885 307.247,187.200 307.126 L 158.600 307.000 158.482 287.000 C 158.344 263.776,158.411 263.073,160.990 260.600 C 161.908 259.720,165.705 254.979,169.429 250.064 C 173.153 245.149,179.229 237.139,182.932 232.264 C 192.084 220.214,191.818 220.618,188.968 223.070 C 186.306 225.359,124.599 287.795,109.972 303.000 C 100.410 312.939,99.248 314.181,99.387 314.320 C 99.611 314.544,101.182 313.178,107.959 306.866 C 109.381 305.542,110.167 305.299,110.625 306.041 C 110.775 306.283,111.504 306.735,112.245 307.045 L 113.592 307.607 113.696 326.504 L 113.800 345.400 161.400 345.530 C 214.032 345.675,222.989 345.435,233.700 343.595 C 234.965 343.378,237.125 343.008,238.500 342.773 C 270.170 337.367,289.678 318.454,293.963 289.000 C 295.043 281.578,295.200 278.250,295.189 263.000 C 295.167 233.829,292.993 222.709,284.978 210.771 C 278.661 201.363,266.528 193.534,254.000 190.782 C 252.790 190.517,251.560 190.232,251.267 190.149 C 250.172 189.842,251.110 189.063,253.220 188.527 C 271.288 183.935,282.229 172.676,286.579 154.200 C 286.942 152.660,287.338 151.040,287.461 150.600 C 287.584 150.160,287.820 147.010,287.987 143.600 C 288.516 132.750,289.610 130.536,301.046 117.164 C 305.861 111.535,314.210 101.746,319.600 95.411 C 324.990 89.077,330.615 82.474,332.100 80.738 C 334.509 77.923,335.040 77.200,334.700 77.200 C 334.644 77.200,303.486 108.314,265.459 146.341 " stroke="none" fill="#fafbfb" fill-rule="evenodd"></path><path id="path1" d="M185.500 0.267 C 182.579 0.357,180.400 0.590,180.400 0.812 C 180.400 1.034,178.859 1.200,176.800 1.200 C 174.667 1.200,173.200 1.363,173.200 1.600 C 173.200 1.829,172.000 2.000,170.400 2.000 C 168.800 2.000,167.600 2.171,167.600 2.400 C 167.600 2.622,166.533 2.800,165.200 2.800 C 163.867 2.800,162.800 2.978,162.800 3.200 C 162.800 3.420,161.900 3.600,160.800 3.600 C 159.700 3.600,158.800 3.780,158.800 4.000 C 158.800 4.220,158.080 4.400,157.200 4.400 C 156.320 4.400,155.600 4.580,155.600 4.800 C 155.600 5.020,154.700 5.200,153.600 5.200 C 152.500 5.200,151.600 5.380,151.600 5.600 C 151.600 5.820,151.060 6.000,150.400 6.000 C 149.740 6.000,149.200 6.180,149.200 6.400 C 149.200 6.620,148.480 6.800,147.600 6.800 C 146.720 6.800,146.000 6.980,146.000 7.200 C 146.000 7.420,145.280 7.600,144.400 7.600 C 143.520 7.600,142.800 7.780,142.800 8.000 C 142.800 8.220,142.260 8.400,141.600 8.400 C 140.940 8.400,140.400 8.580,140.400 8.800 C 140.400 9.020,139.860 9.200,139.200 9.200 C 138.540 9.200,138.000 9.380,138.000 9.600 C 138.000 9.820,137.460 10.000,136.800 10.000 C 136.140 10.000,135.600 10.180,135.600 10.400 C 135.600 10.620,135.060 10.800,134.400 10.800 C 133.740 10.800,133.200 10.980,133.200 11.200 C 133.200 11.420,132.660 11.600,132.000 11.600 C 131.340 11.600,130.800 11.780,130.800 12.000 C 130.800 12.220,130.260 12.400,129.600 12.400 C 128.940 12.400,128.400 12.580,128.400 12.800 C 128.400 13.020,128.040 13.200,127.600 13.200 C 127.160 13.200,126.800 13.380,126.800 13.600 C 126.800 13.820,126.260 14.000,125.600 14.000 C 124.940 14.000,124.400 14.180,124.400 14.400 C 124.400 14.620,124.040 14.800,123.600 14.800 C 123.160 14.800,122.800 14.980,122.800 15.200 C 122.800 15.420,122.440 15.600,122.000 15.600 C 121.560 15.600,121.200 15.780,121.200 16.000 C 121.200 16.220,120.660 16.400,120.000 16.400 C 119.340 16.400,118.800 16.580,118.800 16.800 C 118.800 17.020,118.440 17.200,118.000 17.200 C 117.560 17.200,117.200 17.380,117.200 17.600 C 117.200 17.820,116.840 18.000,116.400 18.000 C 115.960 18.000,115.600 18.180,115.600 18.400 C 115.600 18.620,115.240 18.800,114.800 18.800 C 114.360 18.800,114.000 18.980,114.000 19.200 C 114.000 19.420,113.640 19.600,113.200 19.600 C 112.760 19.600,112.400 19.780,112.400 20.000 C 112.400 20.220,112.040 20.400,111.600 20.400 C 111.160 20.400,110.800 20.580,110.800 20.800 C 110.800 21.020,110.440 21.200,110.000 21.200 C 109.560 21.200,109.200 21.380,109.200 21.600 C 109.200 21.820,108.840 22.000,108.400 22.000 C 107.960 22.000,107.600 22.180,107.600 22.400 C 107.600 22.620,107.240 22.800,106.800 22.800 C 106.360 22.800,106.000 22.980,106.000 23.200 C 106.000 23.420,105.640 23.600,105.200 23.600 C 104.760 23.600,104.400 23.780,104.400 24.000 C 104.400 24.220,104.040 24.400,103.600 24.400 C 103.160 24.400,102.800 24.580,102.800 24.800 C 102.800 25.020,102.440 25.200,102.000 25.200 C 101.560 25.200,101.200 25.380,101.200 25.600 C 101.200 25.820,100.880 26.000,100.488 26.000 C 100.097 26.000,99.517 26.360,99.200 26.800 C 98.883 27.240,98.303 27.600,97.912 27.600 C 97.520 27.600,97.200 27.780,97.200 28.000 C 97.200 28.220,96.880 28.400,96.488 28.400 C 96.097 28.400,95.517 28.760,95.200 29.200 C 94.883 29.640,94.343 30.000,94.000 30.000 C 93.657 30.000,93.117 30.360,92.800 30.800 C 92.483 31.240,91.943 31.600,91.600 31.600 C 91.257 31.600,90.717 31.960,90.400 32.400 C 90.083 32.840,89.543 33.200,89.200 33.200 C 88.857 33.200,88.317 33.560,88.000 34.000 C 87.683 34.440,87.143 34.800,86.800 34.800 C 86.457 34.800,85.917 35.160,85.600 35.600 C 85.283 36.040,84.775 36.400,84.472 36.400 C 84.169 36.400,83.417 36.940,82.800 37.600 C 82.183 38.260,81.463 38.800,81.200 38.800 C 80.937 38.800,80.217 39.340,79.600 40.000 C 78.983 40.660,78.267 41.200,78.008 41.200 C 77.749 41.200,76.846 41.920,76.000 42.800 C 75.154 43.680,74.254 44.400,74.000 44.400 C 73.746 44.400,72.846 45.120,72.000 46.000 C 71.154 46.880,70.262 47.600,70.017 47.600 C 69.773 47.600,67.785 49.400,65.600 51.600 C 63.415 53.800,61.439 55.600,61.208 55.600 C 60.659 55.600,54.000 62.262,54.000 62.811 C 54.000 63.044,52.560 64.659,50.800 66.400 C 49.040 68.141,47.600 69.765,47.600 70.009 C 47.600 70.253,46.700 71.329,45.600 72.400 C 44.500 73.471,43.600 74.554,43.600 74.805 C 43.600 75.057,42.880 75.954,42.000 76.800 C 41.120 77.646,40.400 78.549,40.400 78.808 C 40.400 79.067,39.860 79.783,39.200 80.400 C 38.540 81.017,38.000 81.769,38.000 82.072 C 38.000 82.375,37.640 82.883,37.200 83.200 C 36.760 83.517,36.400 84.025,36.400 84.328 C 36.400 84.631,35.860 85.383,35.200 86.000 C 34.540 86.617,34.000 87.369,34.000 87.672 C 34.000 87.975,33.640 88.483,33.200 88.800 C 32.760 89.117,32.400 89.657,32.400 90.000 C 32.400 90.343,32.040 90.883,31.600 91.200 C 31.160 91.517,30.800 92.097,30.800 92.488 C 30.800 92.880,30.620 93.200,30.400 93.200 C 30.180 93.200,30.000 93.520,30.000 93.912 C 30.000 94.303,29.640 94.883,29.200 95.200 C 28.760 95.517,28.400 96.097,28.400 96.488 C 28.400 96.880,28.220 97.200,28.000 97.200 C 27.780 97.200,27.600 97.520,27.600 97.912 C 27.600 98.303,27.240 98.883,26.800 99.200 C 26.360 99.517,26.000 100.097,26.000 100.488 C 26.000 100.880,25.820 101.200,25.600 101.200 C 25.380 101.200,25.200 101.560,25.200 102.000 C 25.200 102.440,25.020 102.800,24.800 102.800 C 24.580 102.800,24.400 103.160,24.400 103.600 C 24.400 104.040,24.220 104.400,24.000 104.400 C 23.780 104.400,23.600 104.760,23.600 105.200 C 23.600 105.640,23.420 106.000,23.200 106.000 C 22.980 106.000,22.800 106.360,22.800 106.800 C 22.800 107.240,22.620 107.600,22.400 107.600 C 22.180 107.600,22.000 107.960,22.000 108.400 C 22.000 108.840,21.820 109.200,21.600 109.200 C 21.380 109.200,21.200 109.560,21.200 110.000 C 21.200 110.440,21.020 110.800,20.800 110.800 C 20.580 110.800,20.400 111.160,20.400 111.600 C 20.400 112.040,20.220 112.400,20.000 112.400 C 19.780 112.400,19.600 112.760,19.600 113.200 C 19.600 113.640,19.420 114.000,19.200 114.000 C 18.980 114.000,18.800 114.360,18.800 114.800 C 18.800 115.240,18.620 115.600,18.400 115.600 C 18.180 115.600,18.000 115.960,18.000 116.400 C 18.000 116.840,17.820 117.200,17.600 117.200 C 17.380 117.200,17.200 117.560,17.200 118.000 C 17.200 118.440,17.020 118.800,16.800 118.800 C 16.580 118.800,16.400 119.160,16.400 119.600 C 16.400 120.040,16.220 120.400,16.000 120.400 C 15.780 120.400,15.600 120.940,15.600 121.600 C 15.600 122.260,15.420 122.800,15.200 122.800 C 14.980 122.800,14.800 123.160,14.800 123.600 C 14.800 124.040,14.620 124.400,14.400 124.400 C 14.180 124.400,14.000 124.940,14.000 125.600 C 14.000 126.260,13.820 126.800,13.600 126.800 C 13.380 126.800,13.200 127.160,13.200 127.600 C 13.200 128.040,13.020 128.400,12.800 128.400 C 12.580 128.400,12.400 128.940,12.400 129.600 C 12.400 130.260,12.220 130.800,12.000 130.800 C 11.780 130.800,11.600 131.340,11.600 132.000 C 11.600 132.660,11.420 133.200,11.200 133.200 C 10.980 133.200,10.800 133.740,10.800 134.400 C 10.800 135.060,10.620 135.600,10.400 135.600 C 10.180 135.600,10.000 136.140,10.000 136.800 C 10.000 137.460,9.820 138.000,9.600 138.000 C 9.380 138.000,9.200 138.540,9.200 139.200 C 9.200 139.860,9.020 140.400,8.800 140.400 C 8.580 140.400,8.400 140.940,8.400 141.600 C 8.400 142.260,8.220 142.800,8.000 142.800 C 7.780 142.800,7.600 143.520,7.600 144.400 C 7.600 145.280,7.420 146.000,7.200 146.000 C 6.980 146.000,6.800 146.540,6.800 147.200 C 6.800 147.860,6.620 148.400,6.400 148.400 C 6.180 148.400,6.000 149.120,6.000 150.000 C 6.000 150.880,5.820 151.600,5.600 151.600 C 5.380 151.600,5.200 152.500,5.200 153.600 C 5.200 154.700,5.020 155.600,4.800 155.600 C 4.580 155.600,4.400 156.320,4.400 157.200 C 4.400 158.080,4.220 158.800,4.000 158.800 C 3.780 158.800,3.600 159.700,3.600 160.800 C 3.600 161.900,3.420 162.800,3.200 162.800 C 2.978 162.800,2.800 163.867,2.800 165.200 C 2.800 166.533,2.622 167.600,2.400 167.600 C 2.171 167.600,2.000 168.800,2.000 170.400 C 2.000 172.000,1.829 173.200,1.600 173.200 C 1.367 173.200,1.200 174.522,1.200 176.367 C 1.200 178.502,1.041 179.586,0.712 179.696 C 0.003 179.932,0.003 220.068,0.712 220.304 C 1.041 220.414,1.200 221.498,1.200 223.633 C 1.200 225.478,1.367 226.800,1.600 226.800 C 1.829 226.800,2.000 228.000,2.000 229.600 C 2.000 231.200,2.171 232.400,2.400 232.400 C 2.622 232.400,2.800 233.467,2.800 234.800 C 2.800 236.133,2.978 237.200,3.200 237.200 C 3.420 237.200,3.600 238.100,3.600 239.200 C 3.600 240.300,3.780 241.200,4.000 241.200 C 4.220 241.200,4.400 241.920,4.400 242.800 C 4.400 243.680,4.580 244.400,4.800 244.400 C 5.020 244.400,5.200 245.300,5.200 246.400 C 5.200 247.500,5.380 248.400,5.600 248.400 C 5.820 248.400,6.000 248.940,6.000 249.600 C 6.000 250.260,6.180 250.800,6.400 250.800 C 6.620 250.800,6.800 251.520,6.800 252.400 C 6.800 253.280,6.980 254.000,7.200 254.000 C 7.420 254.000,7.600 254.720,7.600 255.600 C 7.600 256.480,7.780 257.200,8.000 257.200 C 8.220 257.200,8.400 257.740,8.400 258.400 C 8.400 259.060,8.580 259.600,8.800 259.600 C 9.020 259.600,9.200 260.140,9.200 260.800 C 9.200 261.460,9.380 262.000,9.600 262.000 C 9.820 262.000,10.000 262.540,10.000 263.200 C 10.000 263.860,10.180 264.400,10.400 264.400 C 10.620 264.400,10.800 264.940,10.800 265.600 C 10.800 266.260,10.980 266.800,11.200 266.800 C 11.420 266.800,11.600 267.340,11.600 268.000 C 11.600 268.660,11.780 269.200,12.000 269.200 C 12.220 269.200,12.400 269.560,12.400 270.000 C 12.400 270.440,12.580 270.800,12.800 270.800 C 13.020 270.800,13.200 271.340,13.200 272.000 C 13.200 272.660,13.380 273.200,13.600 273.200 C 13.820 273.200,14.000 273.740,14.000 274.400 C 14.000 275.060,14.180 275.600,14.400 275.600 C 14.620 275.600,14.800 275.960,14.800 276.400 C 14.800 276.840,14.980 277.200,15.200 277.200 C 15.420 277.200,15.600 277.740,15.600 278.400 C 15.600 279.060,15.780 279.600,16.000 279.600 C 16.220 279.600,16.400 279.960,16.400 280.400 C 16.400 280.840,16.580 281.200,16.800 281.200 C 17.020 281.200,17.200 281.560,17.200 282.000 C 17.200 282.440,17.380 282.800,17.600 282.800 C 17.820 282.800,18.000 283.160,18.000 283.600 C 18.000 284.040,18.180 284.400,18.400 284.400 C 18.620 284.400,18.800 284.760,18.800 285.200 C 18.800 285.640,18.980 286.000,19.200 286.000 C 19.420 286.000,19.600 286.360,19.600 286.800 C 19.600 287.240,19.780 287.600,20.000 287.600 C 20.220 287.600,20.400 287.960,20.400 288.400 C 20.400 288.840,20.580 289.200,20.800 289.200 C 21.020 289.200,21.200 289.560,21.200 290.000 C 21.200 290.440,21.380 290.800,21.600 290.800 C 21.820 290.800,22.000 291.160,22.000 291.600 C 22.000 292.040,22.180 292.400,22.400 292.400 C 22.620 292.400,22.800 292.760,22.800 293.200 C 22.800 293.640,22.980 294.000,23.200 294.000 C 23.420 294.000,23.600 294.360,23.600 294.800 C 23.600 295.240,23.780 295.600,24.000 295.600 C 24.220 295.600,24.400 295.960,24.400 296.400 C 24.400 296.840,24.580 297.200,24.800 297.200 C 25.020 297.200,25.200 297.560,25.200 298.000 C 25.200 298.440,25.380 298.800,25.600 298.800 C 25.820 298.800,26.000 299.120,26.000 299.512 C 26.000 299.903,26.360 300.483,26.800 300.800 C 27.240 301.117,27.600 301.697,27.600 302.088 C 27.600 302.480,27.780 302.800,28.000 302.800 C 28.220 302.800,28.400 303.120,28.400 303.512 C 28.400 303.903,28.760 304.483,29.200 304.800 C 29.640 305.117,30.000 305.657,30.000 306.000 C 30.000 306.343,30.360 306.883,30.800 307.200 C 31.240 307.517,31.600 308.097,31.600 308.488 C 31.600 308.880,31.780 309.200,32.000 309.200 C 32.220 309.200,32.400 309.520,32.400 309.912 C 32.400 310.303,32.760 310.883,33.200 311.200 C 33.640 311.517,34.000 312.025,34.000 312.328 C 34.000 312.631,34.540 313.383,35.200 314.000 C 35.860 314.617,36.400 315.369,36.400 315.672 C 36.400 315.975,36.760 316.483,37.200 316.800 C 37.640 317.117,38.000 317.625,38.000 317.928 C 38.000 318.231,38.540 318.983,39.200 319.600 C 39.860 320.217,40.400 320.933,40.400 321.192 C 40.400 321.451,41.120 322.354,42.000 323.200 C 42.880 324.046,43.600 324.946,43.600 325.200 C 43.600 325.454,44.320 326.354,45.200 327.200 C 46.080 328.046,46.800 328.940,46.800 329.188 C 46.800 329.436,48.060 330.881,49.600 332.400 C 51.140 333.919,52.400 335.352,52.400 335.585 C 52.400 336.135,61.461 345.200,62.011 345.200 C 62.242 345.200,64.037 346.820,66.000 348.800 C 67.963 350.780,69.768 352.400,70.011 352.400 C 70.253 352.400,71.329 353.300,72.400 354.400 C 73.471 355.500,74.558 356.400,74.814 356.400 C 75.070 356.400,75.783 356.940,76.400 357.600 C 77.017 358.260,77.733 358.800,77.992 358.800 C 78.251 358.800,79.154 359.520,80.000 360.400 C 80.846 361.280,81.782 362.000,82.080 362.000 C 82.379 362.000,82.883 362.360,83.200 362.800 C 83.517 363.240,84.057 363.600,84.400 363.600 C 84.743 363.600,85.283 363.960,85.600 364.400 C 85.917 364.840,86.457 365.200,86.800 365.200 C 87.143 365.200,87.683 365.560,88.000 366.000 C 88.317 366.440,88.857 366.800,89.200 366.800 C 89.543 366.800,90.083 367.160,90.400 367.600 C 90.717 368.040,91.257 368.400,91.600 368.400 C 91.943 368.400,92.483 368.760,92.800 369.200 C 93.117 369.640,93.697 370.000,94.088 370.000 C 94.480 370.000,94.800 370.180,94.800 370.400 C 94.800 370.620,95.120 370.800,95.512 370.800 C 95.903 370.800,96.483 371.160,96.800 371.600 C 97.117 372.040,97.697 372.400,98.088 372.400 C 98.480 372.400,98.800 372.580,98.800 372.800 C 98.800 373.020,99.160 373.200,99.600 373.200 C 100.040 373.200,100.400 373.380,100.400 373.600 C 100.400 373.820,100.720 374.000,101.112 374.000 C 101.503 374.000,102.083 374.360,102.400 374.800 C 102.717 375.240,103.297 375.600,103.688 375.600 C 104.080 375.600,104.400 375.780,104.400 376.000 C 104.400 376.220,104.760 376.400,105.200 376.400 C 105.640 376.400,106.000 376.580,106.000 376.800 C 106.000 377.020,106.360 377.200,106.800 377.200 C 107.240 377.200,107.600 377.380,107.600 377.600 C 107.600 377.820,107.960 378.000,108.400 378.000 C 108.840 378.000,109.200 378.180,109.200 378.400 C 109.200 378.620,109.560 378.800,110.000 378.800 C 110.440 378.800,110.800 378.980,110.800 379.200 C 110.800 379.420,111.160 379.600,111.600 379.600 C 112.040 379.600,112.400 379.780,112.400 380.000 C 112.400 380.220,112.760 380.400,113.200 380.400 C 113.640 380.400,114.000 380.580,114.000 380.800 C 114.000 381.020,114.360 381.200,114.800 381.200 C 115.240 381.200,115.600 381.380,115.600 381.600 C 115.600 381.820,115.960 382.000,116.400 382.000 C 116.840 382.000,117.200 382.180,117.200 382.400 C 117.200 382.620,117.560 382.800,118.000 382.800 C 118.440 382.800,118.800 382.980,118.800 383.200 C 118.800 383.420,119.340 383.600,120.000 383.600 C 120.660 383.600,121.200 383.780,121.200 384.000 C 121.200 384.220,121.560 384.400,122.000 384.400 C 122.440 384.400,122.800 384.580,122.800 384.800 C 122.800 385.020,123.160 385.200,123.600 385.200 C 124.040 385.200,124.400 385.380,124.400 385.600 C 124.400 385.820,124.940 386.000,125.600 386.000 C 126.260 386.000,126.800 386.180,126.800 386.400 C 126.800 386.620,127.160 386.800,127.600 386.800 C 128.040 386.800,128.400 386.980,128.400 387.200 C 128.400 387.420,128.940 387.600,129.600 387.600 C 130.260 387.600,130.800 387.780,130.800 388.000 C 130.800 388.220,131.340 388.400,132.000 388.400 C 132.660 388.400,133.200 388.580,133.200 388.800 C 133.200 389.020,133.740 389.200,134.400 389.200 C 135.060 389.200,135.600 389.380,135.600 389.600 C 135.600 389.820,136.140 390.000,136.800 390.000 C 137.460 390.000,138.000 390.180,138.000 390.400 C 138.000 390.620,138.540 390.800,139.200 390.800 C 139.860 390.800,140.400 390.980,140.400 391.200 C 140.400 391.420,140.940 391.600,141.600 391.600 C 142.260 391.600,142.800 391.780,142.800 392.000 C 142.800 392.220,143.520 392.400,144.400 392.400 C 145.280 392.400,146.000 392.580,146.000 392.800 C 146.000 393.020,146.540 393.200,147.200 393.200 C 147.860 393.200,148.400 393.380,148.400 393.600 C 148.400 393.820,149.120 394.000,150.000 394.000 C 150.880 394.000,151.600 394.180,151.600 394.400 C 151.600 394.620,152.320 394.800,153.200 394.800 C 154.080 394.800,154.800 394.980,154.800 395.200 C 154.800 395.420,155.700 395.600,156.800 395.600 C 157.900 395.600,158.800 395.780,158.800 396.000 C 158.800 396.220,159.700 396.400,160.800 396.400 C 161.900 396.400,162.800 396.580,162.800 396.800 C 162.800 397.022,163.867 397.200,165.200 397.200 C 166.533 397.200,167.600 397.378,167.600 397.600 C 167.600 397.829,168.800 398.000,170.400 398.000 C 172.000 398.000,173.200 398.171,173.200 398.400 C 173.200 398.637,174.656 398.800,176.767 398.800 C 179.261 398.800,180.383 398.950,180.500 399.299 C 180.743 400.028,219.257 400.028,219.500 399.299 C 219.617 398.950,220.739 398.800,223.233 398.800 C 225.344 398.800,226.800 398.637,226.800 398.400 C 226.800 398.171,228.000 398.000,229.600 398.000 C 231.200 398.000,232.400 397.829,232.400 397.600 C 232.400 397.378,233.467 397.200,234.800 397.200 C 236.133 397.200,237.200 397.022,237.200 396.800 C 237.200 396.580,238.100 396.400,239.200 396.400 C 240.300 396.400,241.200 396.220,241.200 396.000 C 241.200 395.780,242.100 395.600,243.200 395.600 C 244.300 395.600,245.200 395.420,245.200 395.200 C 245.200 394.980,245.920 394.800,246.800 394.800 C 247.680 394.800,248.400 394.620,248.400 394.400 C 248.400 394.180,249.120 394.000,250.000 394.000 C 250.880 394.000,251.600 393.820,251.600 393.600 C 251.600 393.380,252.140 393.200,252.800 393.200 C 253.460 393.200,254.000 393.020,254.000 392.800 C 254.000 392.580,254.720 392.400,255.600 392.400 C 256.480 392.400,257.200 392.220,257.200 392.000 C 257.200 391.780,257.740 391.600,258.400 391.600 C 259.060 391.600,259.600 391.420,259.600 391.200 C 259.600 390.980,260.140 390.800,260.800 390.800 C 261.460 390.800,262.000 390.620,262.000 390.400 C 262.000 390.180,262.540 390.000,263.200 390.000 C 263.860 390.000,264.400 389.820,264.400 389.600 C 264.400 389.380,264.940 389.200,265.600 389.200 C 266.260 389.200,266.800 389.020,266.800 388.800 C 266.800 388.580,267.340 388.400,268.000 388.400 C 268.660 388.400,269.200 388.220,269.200 388.000 C 269.200 387.780,269.740 387.600,270.400 387.600 C 271.060 387.600,271.600 387.420,271.600 387.200 C 271.600 386.980,271.960 386.800,272.400 386.800 C 272.840 386.800,273.200 386.620,273.200 386.400 C 273.200 386.180,273.740 386.000,274.400 386.000 C 275.060 386.000,275.600 385.820,275.600 385.600 C 275.600 385.380,275.960 385.200,276.400 385.200 C 276.840 385.200,277.200 385.020,277.200 384.800 C 277.200 384.580,277.560 384.400,278.000 384.400 C 278.440 384.400,278.800 384.220,278.800 384.000 C 278.800 383.780,279.340 383.600,280.000 383.600 C 280.660 383.600,281.200 383.420,281.200 383.200 C 281.200 382.980,281.560 382.800,282.000 382.800 C 282.440 382.800,282.800 382.620,282.800 382.400 C 282.800 382.180,283.160 382.000,283.600 382.000 C 284.040 382.000,284.400 381.820,284.400 381.600 C 284.400 381.380,284.760 381.200,285.200 381.200 C 285.640 381.200,286.000 381.020,286.000 380.800 C 286.000 380.580,286.360 380.400,286.800 380.400 C 287.240 380.400,287.600 380.220,287.600 380.000 C 287.600 379.780,287.960 379.600,288.400 379.600 C 288.840 379.600,289.200 379.420,289.200 379.200 C 289.200 378.980,289.560 378.800,290.000 378.800 C 290.440 378.800,290.800 378.620,290.800 378.400 C 290.800 378.180,291.160 378.000,291.600 378.000 C 292.040 378.000,292.400 377.820,292.400 377.600 C 292.400 377.380,292.760 377.200,293.200 377.200 C 293.640 377.200,294.000 377.020,294.000 376.800 C 294.000 376.580,294.360 376.400,294.800 376.400 C 295.240 376.400,295.600 376.220,295.600 376.000 C 295.600 375.780,295.920 375.600,296.312 375.600 C 296.703 375.600,297.283 375.240,297.600 374.800 C 297.917 374.360,298.497 374.000,298.888 374.000 C 299.280 374.000,299.600 373.820,299.600 373.600 C 299.600 373.380,299.960 373.200,300.400 373.200 C 300.840 373.200,301.200 373.020,301.200 372.800 C 301.200 372.580,301.520 372.400,301.912 372.400 C 302.303 372.400,302.883 372.040,303.200 371.600 C 303.517 371.160,304.097 370.800,304.488 370.800 C 304.880 370.800,305.200 370.620,305.200 370.400 C 305.200 370.180,305.520 370.000,305.912 370.000 C 306.303 370.000,306.883 369.640,307.200 369.200 C 307.517 368.760,308.057 368.400,308.400 368.400 C 308.743 368.400,309.283 368.040,309.600 367.600 C 309.917 367.160,310.457 366.800,310.800 366.800 C 311.143 366.800,311.683 366.440,312.000 366.000 C 312.317 365.560,312.857 365.200,313.200 365.200 C 313.543 365.200,314.083 364.840,314.400 364.400 C 314.717 363.960,315.257 363.600,315.600 363.600 C 315.943 363.600,316.483 363.240,316.800 362.800 C 317.117 362.360,317.621 362.000,317.920 362.000 C 318.218 362.000,319.154 361.280,320.000 360.400 C 320.846 359.520,321.749 358.800,322.008 358.800 C 322.267 358.800,322.983 358.260,323.600 357.600 C 324.217 356.940,324.930 356.400,325.186 356.400 C 325.442 356.400,326.529 355.500,327.600 354.400 C 328.671 353.300,329.747 352.400,329.989 352.400 C 330.232 352.400,332.037 350.780,334.000 348.800 C 335.963 346.820,337.758 345.200,337.989 345.200 C 338.539 345.200,347.600 336.135,347.600 335.585 C 347.600 335.352,348.860 333.919,350.400 332.400 C 351.940 330.881,353.200 329.438,353.200 329.193 C 353.200 328.948,354.100 327.871,355.200 326.800 C 356.300 325.729,357.200 324.642,357.200 324.386 C 357.200 324.130,357.740 323.417,358.400 322.800 C 359.060 322.183,359.600 321.463,359.600 321.200 C 359.600 320.937,360.140 320.217,360.800 319.600 C 361.460 318.983,362.000 318.231,362.000 317.928 C 362.000 317.625,362.360 317.117,362.800 316.800 C 363.240 316.483,363.600 315.975,363.600 315.672 C 363.600 315.369,364.140 314.617,364.800 314.000 C 365.460 313.383,366.000 312.631,366.000 312.328 C 366.000 312.025,366.360 311.517,366.800 311.200 C 367.240 310.883,367.600 310.303,367.600 309.912 C 367.600 309.520,367.780 309.200,368.000 309.200 C 368.220 309.200,368.400 308.880,368.400 308.488 C 368.400 308.097,368.760 307.517,369.200 307.200 C 369.640 306.883,370.000 306.343,370.000 306.000 C 370.000 305.657,370.360 305.117,370.800 304.800 C 371.240 304.483,371.600 303.903,371.600 303.512 C 371.600 303.120,371.780 302.800,372.000 302.800 C 372.220 302.800,372.400 302.480,372.400 302.088 C 372.400 301.697,372.760 301.117,373.200 300.800 C 373.640 300.483,374.000 299.903,374.000 299.512 C 374.000 299.120,374.180 298.800,374.400 298.800 C 374.620 298.800,374.800 298.440,374.800 298.000 C 374.800 297.560,374.980 297.200,375.200 297.200 C 375.420 297.200,375.600 296.840,375.600 296.400 C 375.600 295.960,375.780 295.600,376.000 295.600 C 376.220 295.600,376.400 295.240,376.400 294.800 C 376.400 294.360,376.580 294.000,376.800 294.000 C 377.020 294.000,377.200 293.640,377.200 293.200 C 377.200 292.760,377.380 292.400,377.600 292.400 C 377.820 292.400,378.000 292.040,378.000 291.600 C 378.000 291.160,378.180 290.800,378.400 290.800 C 378.620 290.800,378.800 290.440,378.800 290.000 C 378.800 289.560,378.980 289.200,379.200 289.200 C 379.420 289.200,379.600 288.840,379.600 288.400 C 379.600 287.960,379.780 287.600,380.000 287.600 C 380.220 287.600,380.400 287.240,380.400 286.800 C 380.400 286.360,380.580 286.000,380.800 286.000 C 381.020 286.000,381.200 285.640,381.200 285.200 C 381.200 284.760,381.380 284.400,381.600 284.400 C 381.820 284.400,382.000 284.040,382.000 283.600 C 382.000 283.160,382.180 282.800,382.400 282.800 C 382.620 282.800,382.800 282.440,382.800 282.000 C 382.800 281.560,382.980 281.200,383.200 281.200 C 383.420 281.200,383.600 280.660,383.600 280.000 C 383.600 279.340,383.780 278.800,384.000 278.800 C 384.220 278.800,384.400 278.440,384.400 278.000 C 384.400 277.560,384.580 277.200,384.800 277.200 C 385.020 277.200,385.200 276.840,385.200 276.400 C 385.200 275.960,385.380 275.600,385.600 275.600 C 385.820 275.600,386.000 275.060,386.000 274.400 C 386.000 273.740,386.180 273.200,386.400 273.200 C 386.620 273.200,386.800 272.660,386.800 272.000 C 386.800 271.340,386.980 270.800,387.200 270.800 C 387.420 270.800,387.600 270.440,387.600 270.000 C 387.600 269.560,387.780 269.200,388.000 269.200 C 388.220 269.200,388.400 268.660,388.400 268.000 C 388.400 267.340,388.580 266.800,388.800 266.800 C 389.020 266.800,389.200 266.260,389.200 265.600 C 389.200 264.940,389.380 264.400,389.600 264.400 C 389.820 264.400,390.000 263.860,390.000 263.200 C 390.000 262.540,390.180 262.000,390.400 262.000 C 390.620 262.000,390.800 261.460,390.800 260.800 C 390.800 260.140,390.980 259.600,391.200 259.600 C 391.420 259.600,391.600 259.060,391.600 258.400 C 391.600 257.740,391.780 257.200,392.000 257.200 C 392.220 257.200,392.400 256.480,392.400 255.600 C 392.400 254.720,392.580 254.000,392.800 254.000 C 393.020 254.000,393.200 253.280,393.200 252.400 C 393.200 251.520,393.380 250.800,393.600 250.800 C 393.820 250.800,394.000 250.260,394.000 249.600 C 394.000 248.940,394.180 248.400,394.400 248.400 C 394.620 248.400,394.800 247.500,394.800 246.400 C 394.800 245.300,394.980 244.400,395.200 244.400 C 395.420 244.400,395.600 243.680,395.600 242.800 C 395.600 241.920,395.780 241.200,396.000 241.200 C 396.220 241.200,396.400 240.300,396.400 239.200 C 396.400 238.100,396.580 237.200,396.800 237.200 C 397.022 237.200,397.200 236.133,397.200 234.800 C 397.200 233.467,397.378 232.400,397.600 232.400 C 397.829 232.400,398.000 231.200,398.000 229.600 C 398.000 228.000,398.171 226.800,398.400 226.800 C 398.633 226.800,398.800 225.478,398.800 223.633 C 398.800 221.541,398.961 220.413,399.276 220.308 C 399.981 220.073,400.001 180.734,399.295 180.498 C 398.951 180.384,398.800 179.247,398.800 176.767 C 398.800 174.656,398.637 173.200,398.400 173.200 C 398.171 173.200,398.000 172.000,398.000 170.400 C 398.000 168.800,397.829 167.600,397.600 167.600 C 397.378 167.600,397.200 166.533,397.200 165.200 C 397.200 163.867,397.022 162.800,396.800 162.800 C 396.580 162.800,396.400 161.900,396.400 160.800 C 396.400 159.700,396.220 158.800,396.000 158.800 C 395.780 158.800,395.600 158.080,395.600 157.200 C 395.600 156.320,395.420 155.600,395.200 155.600 C 394.980 155.600,394.800 154.700,394.800 153.600 C 394.800 152.500,394.620 151.600,394.400 151.600 C 394.180 151.600,394.000 151.060,394.000 150.400 C 394.000 149.740,393.820 149.200,393.600 149.200 C 393.380 149.200,393.200 148.480,393.200 147.600 C 393.200 146.720,393.020 146.000,392.800 146.000 C 392.580 146.000,392.400 145.280,392.400 144.400 C 392.400 143.520,392.220 142.800,392.000 142.800 C 391.780 142.800,391.600 142.260,391.600 141.600 C 391.600 140.940,391.420 140.400,391.200 140.400 C 390.980 140.400,390.800 139.860,390.800 139.200 C 390.800 138.540,390.620 138.000,390.400 138.000 C 390.180 138.000,390.000 137.460,390.000 136.800 C 390.000 136.140,389.820 135.600,389.600 135.600 C 389.380 135.600,389.200 135.060,389.200 134.400 C 389.200 133.740,389.020 133.200,388.800 133.200 C 388.580 133.200,388.400 132.660,388.400 132.000 C 388.400 131.340,388.220 130.800,388.000 130.800 C 387.780 130.800,387.600 130.440,387.600 130.000 C 387.600 129.560,387.420 129.200,387.200 129.200 C 386.980 129.200,386.800 128.660,386.800 128.000 C 386.800 127.340,386.620 126.800,386.400 126.800 C 386.180 126.800,386.000 126.260,386.000 125.600 C 386.000 124.940,385.820 124.400,385.600 124.400 C 385.380 124.400,385.200 124.040,385.200 123.600 C 385.200 123.160,385.020 122.800,384.800 122.800 C 384.580 122.800,384.400 122.440,384.400 122.000 C 384.400 121.560,384.220 121.200,384.000 121.200 C 383.780 121.200,383.600 120.660,383.600 120.000 C 383.600 119.340,383.420 118.800,383.200 118.800 C 382.980 118.800,382.800 118.440,382.800 118.000 C 382.800 117.560,382.620 117.200,382.400 117.200 C 382.180 117.200,382.000 116.840,382.000 116.400 C 382.000 115.960,381.820 115.600,381.600 115.600 C 381.380 115.600,381.200 115.240,381.200 114.800 C 381.200 114.360,381.020 114.000,380.800 114.000 C 380.580 114.000,380.400 113.640,380.400 113.200 C 380.400 112.760,380.220 112.400,380.000 112.400 C 379.780 112.400,379.600 112.040,379.600 111.600 C 379.600 111.160,379.420 110.800,379.200 110.800 C 378.980 110.800,378.800 110.440,378.800 110.000 C 378.800 109.560,378.620 109.200,378.400 109.200 C 378.180 109.200,378.000 108.840,378.000 108.400 C 378.000 107.960,377.820 107.600,377.600 107.600 C 377.380 107.600,377.200 107.240,377.200 106.800 C 377.200 106.360,377.020 106.000,376.800 106.000 C 376.580 106.000,376.400 105.640,376.400 105.200 C 376.400 104.760,376.220 104.400,376.000 104.400 C 375.780 104.400,375.600 104.040,375.600 103.600 C 375.600 103.160,375.420 102.800,375.200 102.800 C 374.980 102.800,374.800 102.440,374.800 102.000 C 374.800 101.560,374.620 101.200,374.400 101.200 C 374.180 101.200,374.000 100.880,374.000 100.488 C 374.000 100.097,373.640 99.517,373.200 99.200 C 372.760 98.883,372.400 98.303,372.400 97.912 C 372.400 97.520,372.220 97.200,372.000 97.200 C 371.780 97.200,371.600 96.880,371.600 96.488 C 371.600 96.097,371.240 95.517,370.800 95.200 C 370.360 94.883,370.000 94.343,370.000 94.000 C 370.000 93.657,369.640 93.117,369.200 92.800 C 368.760 92.483,368.400 91.903,368.400 91.512 C 368.400 91.120,368.220 90.800,368.000 90.800 C 367.780 90.800,367.600 90.480,367.600 90.088 C 367.600 89.697,367.240 89.117,366.800 88.800 C 366.360 88.483,366.000 87.975,366.000 87.672 C 366.000 87.369,365.460 86.617,364.800 86.000 C 364.140 85.383,363.600 84.631,363.600 84.328 C 363.600 84.025,363.240 83.517,362.800 83.200 C 362.360 82.883,362.000 82.375,362.000 82.072 C 362.000 81.769,361.460 81.017,360.800 80.400 C 360.140 79.783,359.600 79.067,359.600 78.808 C 359.600 78.549,358.880 77.646,358.000 76.800 C 357.120 75.954,356.400 75.057,356.400 74.805 C 356.400 74.554,355.500 73.471,354.400 72.400 C 353.300 71.329,352.400 70.253,352.400 70.011 C 352.400 69.768,350.780 67.963,348.800 66.000 C 346.820 64.037,345.200 62.241,345.200 62.009 C 345.200 61.460,339.342 55.600,338.793 55.600 C 338.561 55.600,336.585 53.800,334.400 51.600 C 332.215 49.400,330.227 47.600,329.983 47.600 C 329.738 47.600,328.846 46.880,328.000 46.000 C 327.154 45.120,326.254 44.400,326.000 44.400 C 325.746 44.400,324.846 43.680,324.000 42.800 C 323.154 41.920,322.251 41.200,321.992 41.200 C 321.733 41.200,321.017 40.660,320.400 40.000 C 319.783 39.340,319.063 38.800,318.800 38.800 C 318.537 38.800,317.817 38.260,317.200 37.600 C 316.583 36.940,315.831 36.400,315.528 36.400 C 315.225 36.400,314.717 36.040,314.400 35.600 C 314.083 35.160,313.543 34.800,313.200 34.800 C 312.857 34.800,312.317 34.440,312.000 34.000 C 311.683 33.560,311.143 33.200,310.800 33.200 C 310.457 33.200,309.917 32.840,309.600 32.400 C 309.283 31.960,308.743 31.600,308.400 31.600 C 308.057 31.600,307.517 31.240,307.200 30.800 C 306.883 30.360,306.343 30.000,306.000 30.000 C 305.657 30.000,305.117 29.640,304.800 29.200 C 304.483 28.760,303.903 28.400,303.512 28.400 C 303.120 28.400,302.800 28.220,302.800 28.000 C 302.800 27.780,302.440 27.600,302.000 27.600 C 301.560 27.600,301.200 27.420,301.200 27.200 C 301.200 26.980,300.880 26.800,300.488 26.800 C 300.097 26.800,299.517 26.440,299.200 26.000 C 298.883 25.560,298.303 25.200,297.912 25.200 C 297.520 25.200,297.200 25.020,297.200 24.800 C 297.200 24.580,296.840 24.400,296.400 24.400 C 295.960 24.400,295.600 24.220,295.600 24.000 C 295.600 23.780,295.240 23.600,294.800 23.600 C 294.360 23.600,294.000 23.420,294.000 23.200 C 294.000 22.980,293.640 22.800,293.200 22.800 C 292.760 22.800,292.400 22.620,292.400 22.400 C 292.400 22.180,292.040 22.000,291.600 22.000 C 291.160 22.000,290.800 21.820,290.800 21.600 C 290.800 21.380,290.440 21.200,290.000 21.200 C 289.560 21.200,289.200 21.020,289.200 20.800 C 289.200 20.580,288.840 20.400,288.400 20.400 C 287.960 20.400,287.600 20.220,287.600 20.000 C 287.600 19.780,287.240 19.600,286.800 19.600 C 286.360 19.600,286.000 19.420,286.000 19.200 C 286.000 18.980,285.640 18.800,285.200 18.800 C 284.760 18.800,284.400 18.620,284.400 18.400 C 284.400 18.180,284.040 18.000,283.600 18.000 C 283.160 18.000,282.800 17.820,282.800 17.600 C 282.800 17.380,282.440 17.200,282.000 17.200 C 281.560 17.200,281.200 17.020,281.200 16.800 C 281.200 16.580,280.660 16.400,280.000 16.400 C 279.340 16.400,278.800 16.220,278.800 16.000 C 278.800 15.780,278.440 15.600,278.000 15.600 C 277.560 15.600,277.200 15.420,277.200 15.200 C 277.200 14.980,276.840 14.800,276.400 14.800 C 275.960 14.800,275.600 14.620,275.600 14.400 C 275.600 14.180,275.060 14.000,274.400 14.000 C 273.740 14.000,273.200 13.820,273.200 13.600 C 273.200 13.380,272.840 13.200,272.400 13.200 C 271.960 13.200,271.600 13.020,271.600 12.800 C 271.600 12.580,271.060 12.400,270.400 12.400 C 269.740 12.400,269.200 12.220,269.200 12.000 C 269.200 11.780,268.660 11.600,268.000 11.600 C 267.340 11.600,266.800 11.420,266.800 11.200 C 266.800 10.980,266.260 10.800,265.600 10.800 C 264.940 10.800,264.400 10.620,264.400 10.400 C 264.400 10.180,263.860 10.000,263.200 10.000 C 262.540 10.000,262.000 9.820,262.000 9.600 C 262.000 9.380,261.460 9.200,260.800 9.200 C 260.140 9.200,259.600 9.020,259.600 8.800 C 259.600 8.580,259.060 8.400,258.400 8.400 C 257.740 8.400,257.200 8.220,257.200 8.000 C 257.200 7.780,256.480 7.600,255.600 7.600 C 254.720 7.600,254.000 7.420,254.000 7.200 C 254.000 6.980,253.280 6.800,252.400 6.800 C 251.520 6.800,250.800 6.620,250.800 6.400 C 250.800 6.180,250.260 6.000,249.600 6.000 C 248.940 6.000,248.400 5.820,248.400 5.600 C 248.400 5.380,247.500 5.200,246.400 5.200 C 245.300 5.200,244.400 5.020,244.400 4.800 C 244.400 4.580,243.680 4.400,242.800 4.400 C 241.920 4.400,241.200 4.220,241.200 4.000 C 241.200 3.780,240.300 3.600,239.200 3.600 C 238.100 3.600,237.200 3.420,237.200 3.200 C 237.200 2.978,236.133 2.800,234.800 2.800 C 233.467 2.800,232.400 2.622,232.400 2.400 C 232.400 2.171,231.200 2.000,229.600 2.000 C 228.000 2.000,226.800 1.829,226.800 1.600 C 226.800 1.363,225.344 1.200,223.233 1.200 C 221.215 1.200,219.609 1.027,219.533 0.801 C 219.391 0.374,194.655 -0.014,185.500 0.267 M212.800 54.401 C 226.104 55.061,232.747 55.940,243.600 58.477 C 261.192 62.588,276.607 73.817,282.482 86.800 C 282.830 87.570,283.514 89.088,284.001 90.173 C 285.759 94.090,288.033 102.556,288.632 107.418 L 288.881 109.437 286.941 111.003 C 280.341 116.328,274.070 122.343,252.570 143.966 C 236.844 159.783,228.372 168.030,228.053 167.833 C 227.423 167.443,227.437 167.420,233.897 158.533 C 242.916 146.128,242.209 148.377,242.171 132.200 C 242.119 110.642,238.839 103.372,227.152 98.915 C 219.360 95.943,215.000 95.599,185.100 95.599 L 159.600 95.600 159.600 131.800 L 159.600 168.000 193.400 168.000 C 232.307 168.000,228.927 167.522,224.320 172.370 C 216.658 180.430,211.955 185.409,199.401 198.751 C 197.195 201.095,178.713 218.384,175.001 221.575 C 172.800 223.467,172.678 222.435,174.712 219.131 C 175.569 217.739,177.200 215.102,178.335 213.271 C 179.471 211.439,180.400 209.864,180.400 209.771 C 180.400 209.677,175.720 209.600,170.000 209.600 L 159.600 209.600 159.600 223.298 L 159.600 236.996 109.216 287.381 C 81.504 315.092,58.704 337.638,58.549 337.482 C 58.172 337.105,59.468 335.521,69.575 324.000 C 74.303 318.610,80.698 311.320,83.786 307.800 C 86.874 304.280,89.960 300.770,90.645 300.000 C 109.430 278.883,109.990 278.177,111.685 273.515 L 112.600 271.000 112.706 162.820 C 112.790 77.557,112.917 54.573,113.306 54.326 C 114.040 53.860,203.240 53.928,212.800 54.401 M341.600 70.124 C 341.600 70.706,338.185 74.873,327.423 87.424 C 323.450 92.058,319.390 96.816,318.400 97.998 C 316.095 100.749,297.274 122.761,294.970 125.400 C 291.085 129.849,287.894 139.586,288.875 144.000 C 289.046 144.770,289.025 146.210,288.829 147.200 C 288.633 148.190,288.262 150.080,288.006 151.400 C 284.199 171.013,274.085 182.824,256.302 188.424 C 253.255 189.384,252.375 190.000,254.053 190.000 C 258.422 190.000,272.624 197.015,278.455 202.053 C 281.804 204.946,289.200 214.707,289.200 216.234 C 289.200 216.330,289.552 217.172,289.981 218.104 C 290.725 219.718,292.840 226.208,293.597 229.200 C 294.006 230.812,294.530 233.876,295.276 239.000 C 296.012 244.060,296.019 282.210,295.284 286.200 C 295.001 287.740,294.585 290.080,294.360 291.400 C 291.774 306.598,284.494 319.695,273.800 328.387 C 265.780 334.906,258.664 338.357,245.600 342.063 C 243.976 342.524,241.587 343.025,238.200 343.614 C 236.880 343.844,234.810 344.204,233.600 344.414 C 226.104 345.717,222.129 345.800,167.600 345.800 L 113.000 345.800 112.800 326.903 L 112.600 308.006 111.076 307.189 L 109.551 306.372 106.876 308.923 C 105.404 310.327,103.660 311.933,103.000 312.493 C 96.918 317.656,94.811 319.461,93.670 320.483 C 91.428 322.490,91.754 321.370,94.243 318.512 C 102.090 309.501,191.860 218.402,194.134 217.142 C 196.160 216.019,195.255 217.332,181.882 234.900 C 173.550 245.846,170.409 249.979,166.909 254.600 C 164.910 257.240,162.701 259.940,162.001 260.600 C 159.504 262.955,159.600 261.961,159.600 285.380 L 159.600 306.800 183.300 306.799 C 206.184 306.799,218.008 306.426,222.200 305.572 C 225.216 304.958,230.165 303.679,231.400 303.195 C 245.314 297.741,249.200 288.441,249.200 260.600 C 249.200 242.925,248.647 238.620,245.474 231.600 C 243.742 227.768,238.552 222.179,235.186 220.519 C 233.554 219.715,232.527 219.394,228.400 218.399 C 224.623 217.489,215.493 216.845,198.432 216.284 C 197.019 216.238,195.808 216.020,195.740 215.800 C 195.610 215.383,340.773 69.572,341.300 69.590 C 341.465 69.595,341.600 69.836,341.600 70.124 " stroke="none" fill="#044cac" fill-rule="evenodd"></path><path id="path2" d="M206.900 54.687 C 207.505 54.778,208.495 54.778,209.100 54.687 C 209.705 54.595,209.210 54.520,208.000 54.520 C 206.790 54.520,206.295 54.595,206.900 54.687 M214.900 55.087 C 215.505 55.178,216.495 55.178,217.100 55.087 C 217.705 54.995,217.210 54.920,216.000 54.920 C 214.790 54.920,214.295 54.995,214.900 55.087 M112.997 162.200 C 112.997 220.940,113.043 244.910,113.100 215.468 C 113.157 186.025,113.157 137.965,113.100 108.668 C 113.043 79.370,112.997 103.460,112.997 162.200 M272.383 73.700 C 273.364 74.745,274.219 75.600,274.283 75.600 C 274.584 75.600,274.266 75.241,272.500 73.583 L 270.600 71.800 272.383 73.700 M338.938 72.617 C 338.578 73.555,338.967 73.666,339.519 72.782 C 339.828 72.287,339.854 72.000,339.591 72.000 C 339.362 72.000,339.068 72.278,338.938 72.617 M294.199 116.900 L 250.600 160.600 294.384 117.000 C 318.465 93.020,338.250 73.355,338.350 73.300 C 338.451 73.245,338.368 73.200,338.166 73.200 C 337.964 73.200,318.179 92.865,294.199 116.900 M158.984 95.700 C 158.879 95.975,158.840 112.310,158.897 132.000 L 159.000 167.800 159.200 131.500 C 159.310 111.535,159.349 95.200,159.287 95.200 C 159.226 95.200,159.089 95.425,158.984 95.700 M242.501 124.600 C 242.505 125.480,242.587 125.793,242.683 125.295 C 242.779 124.798,242.775 124.078,242.675 123.695 C 242.575 123.313,242.496 123.720,242.501 124.600 M249.798 146.100 L 229.800 166.200 249.900 146.202 C 268.583 127.613,270.180 126.000,269.898 126.000 C 269.843 126.000,260.798 135.045,249.798 146.100 M242.493 142.000 C 242.493 142.770,242.575 143.085,242.676 142.700 C 242.776 142.315,242.776 141.685,242.676 141.300 C 242.575 140.915,242.493 141.230,242.493 142.000 M226.183 168.730 C 226.365 169.049,226.115 169.684,225.553 170.330 L 224.623 171.400 225.797 170.305 C 226.775 169.393,226.880 169.127,226.427 168.705 C 225.986 168.296,225.940 168.301,226.183 168.730 M220.975 175.300 L 219.800 176.600 221.100 175.425 C 221.815 174.779,222.400 174.194,222.400 174.125 C 222.400 173.816,222.070 174.088,220.975 175.300 M274.800 177.400 C 273.828 178.390,273.123 179.200,273.233 179.200 C 273.343 179.200,274.228 178.390,275.200 177.400 C 276.172 176.410,276.877 175.600,276.767 175.600 C 276.657 175.600,275.772 176.410,274.800 177.400 M212.985 183.700 L 211.000 185.800 213.100 183.815 C 214.255 182.723,215.200 181.778,215.200 181.715 C 215.200 181.417,214.829 181.749,212.985 183.700 M207.375 189.700 L 206.200 191.000 207.500 189.825 C 208.215 189.179,208.800 188.594,208.800 188.525 C 208.800 188.216,208.470 188.488,207.375 189.700 M199.600 197.800 C 198.628 198.790,197.923 199.600,198.033 199.600 C 198.143 199.600,199.028 198.790,200.000 197.800 C 200.972 196.810,201.677 196.000,201.567 196.000 C 201.457 196.000,200.572 196.810,199.600 197.800 M279.983 204.100 C 280.964 205.145,281.819 206.000,281.883 206.000 C 282.184 206.000,281.866 205.641,280.100 203.983 L 278.200 202.200 279.983 204.100 M158.980 223.400 C 158.980 230.880,159.034 233.883,159.099 230.074 C 159.165 226.265,159.165 220.145,159.099 216.474 C 159.033 212.803,158.979 215.920,158.980 223.400 M182.378 214.300 L 181.000 215.800 182.500 214.422 C 183.896 213.138,184.184 212.800,183.878 212.800 C 183.812 212.800,183.137 213.475,182.378 214.300 M205.905 216.283 C 206.402 216.379,207.122 216.375,207.505 216.275 C 207.887 216.175,207.480 216.096,206.600 216.101 C 205.720 216.105,205.407 216.187,205.905 216.283 M214.100 216.676 C 214.485 216.776,215.115 216.776,215.500 216.676 C 215.885 216.575,215.570 216.493,214.800 216.493 C 214.030 216.493,213.715 216.575,214.100 216.676 M176.575 219.700 L 175.400 221.000 176.700 219.825 C 177.912 218.730,178.184 218.400,177.875 218.400 C 177.806 218.400,177.221 218.985,176.575 219.700 M173.738 221.017 C 173.410 221.872,173.909 222.260,174.507 221.615 C 174.903 221.187,174.889 221.146,174.432 221.407 C 174.010 221.648,173.930 221.560,174.119 221.066 C 174.260 220.700,174.285 220.400,174.175 220.400 C 174.065 220.400,173.868 220.678,173.738 221.017 M144.398 251.500 L 130.200 265.800 144.500 251.602 C 152.365 243.793,158.800 237.358,158.800 237.302 C 158.800 237.020,157.593 238.210,144.398 251.500 M295.314 247.800 C 295.317 248.900,295.395 249.303,295.487 248.695 C 295.579 248.086,295.577 247.186,295.482 246.695 C 295.387 246.203,295.311 246.700,295.314 247.800 M144.596 266.900 L 136.600 275.000 144.700 267.004 C 149.155 262.606,152.800 258.961,152.800 258.904 C 152.800 258.619,152.026 259.374,144.596 266.900 M158.890 286.476 C 158.841 297.628,158.935 306.836,159.100 306.938 C 159.373 307.107,159.368 291.870,159.089 273.400 C 159.030 269.440,158.940 275.324,158.890 286.476 M295.301 278.600 C 295.305 279.480,295.387 279.793,295.483 279.295 C 295.579 278.798,295.575 278.078,295.475 277.695 C 295.375 277.313,295.296 277.720,295.301 278.600 M124.195 287.700 L 118.600 293.400 124.300 287.805 C 129.595 282.608,130.181 282.000,129.895 282.000 C 129.837 282.000,127.272 284.565,124.195 287.700 M240.581 297.700 L 239.000 299.400 240.700 297.819 C 242.281 296.348,242.584 296.000,242.281 296.000 C 242.216 296.000,241.451 296.765,240.581 297.700 M107.385 304.900 L 105.400 307.000 107.500 305.015 C 108.655 303.923,109.600 302.978,109.600 302.915 C 109.600 302.617,109.229 302.949,107.385 304.900 M215.105 306.683 C 215.602 306.779,216.322 306.775,216.705 306.675 C 217.087 306.575,216.680 306.496,215.800 306.501 C 214.920 306.505,214.607 306.587,215.105 306.683 M208.105 307.087 C 208.714 307.179,209.614 307.177,210.105 307.082 C 210.597 306.987,210.100 306.911,209.000 306.914 C 207.900 306.917,207.497 306.995,208.105 307.087 M112.985 326.600 C 112.985 336.940,113.036 341.227,113.100 336.128 C 113.163 331.028,113.163 322.568,113.100 317.328 C 113.037 312.087,112.985 316.260,112.985 326.600 M104.175 310.900 L 103.000 312.200 104.300 311.025 C 105.512 309.930,105.784 309.600,105.475 309.600 C 105.406 309.600,104.821 310.185,104.175 310.900 M99.385 313.300 L 97.400 315.400 99.500 313.415 C 101.451 311.571,101.783 311.200,101.485 311.200 C 101.422 311.200,100.477 312.145,99.385 313.300 M95.043 318.059 C 94.118 319.138,94.376 319.323,95.560 318.430 C 96.082 318.036,96.336 317.608,96.126 317.478 C 95.915 317.348,95.428 317.609,95.043 318.059 M61.765 333.411 C 61.173 334.187,60.766 334.900,60.861 334.995 C 61.200 335.334,63.074 333.387,63.070 332.700 C 63.065 331.754,63.002 331.789,61.765 333.411 M137.931 345.900 C 151.203 345.958,172.803 345.958,185.931 345.900 C 199.059 345.841,188.200 345.794,161.800 345.794 C 135.400 345.794,124.659 345.841,137.931 345.900 " stroke="none" fill="#5787c9" fill-rule="evenodd"></path><path id="path3" d="M113.654 54.935 C 113.332 55.323,113.181 85.043,113.105 163.359 C 113.047 222.698,113.117 270.832,113.260 270.324 C 113.403 269.816,113.538 221.205,113.560 162.300 L 113.600 55.200 163.900 55.131 C 191.565 55.093,212.130 54.936,209.600 54.783 C 200.189 54.214,114.139 54.350,113.654 54.935 M220.800 55.620 C 221.790 55.797,223.320 55.932,224.200 55.920 L 225.800 55.900 224.000 55.580 C 223.010 55.403,221.480 55.268,220.600 55.280 L 219.000 55.300 220.800 55.620 M228.400 56.400 C 228.950 56.576,229.940 56.717,230.600 56.713 L 231.800 56.705 230.600 56.400 C 229.940 56.232,228.950 56.091,228.400 56.087 L 227.400 56.080 228.400 56.400 M233.600 57.200 C 234.150 57.376,235.050 57.520,235.600 57.520 L 236.600 57.520 235.600 57.200 C 235.050 57.024,234.150 56.880,233.600 56.880 L 232.600 56.880 233.600 57.200 M237.800 58.000 C 238.240 58.189,238.960 58.344,239.400 58.344 L 240.200 58.344 239.400 58.000 C 238.960 57.811,238.240 57.656,237.800 57.656 L 237.000 57.656 237.800 58.000 M241.400 58.800 C 241.840 58.989,242.560 59.144,243.000 59.144 L 243.800 59.144 243.000 58.800 C 242.560 58.611,241.840 58.456,241.400 58.456 L 240.600 58.456 241.400 58.800 M245.000 59.600 C 246.196 60.114,247.195 60.114,246.400 59.600 C 246.070 59.387,245.440 59.222,245.000 59.234 L 244.200 59.256 245.000 59.600 M250.000 61.200 C 250.330 61.413,250.870 61.588,251.200 61.588 C 251.733 61.588,251.733 61.545,251.200 61.200 C 250.870 60.987,250.330 60.812,250.000 60.812 C 249.467 60.812,249.467 60.855,250.000 61.200 M256.200 63.576 C 258.606 64.763,259.713 65.116,258.980 64.460 C 258.609 64.128,255.592 62.871,254.400 62.551 C 254.070 62.463,254.880 62.924,256.200 63.576 M259.600 64.979 C 259.600 65.089,260.140 65.459,260.800 65.800 C 261.460 66.141,262.000 66.331,262.000 66.221 C 262.000 66.111,261.460 65.741,260.800 65.400 C 260.140 65.059,259.600 64.869,259.600 64.979 M262.400 66.516 C 262.400 66.608,263.705 67.527,265.300 68.559 C 267.105 69.726,267.713 70.005,266.910 69.297 C 265.654 68.188,262.400 66.182,262.400 66.516 M270.333 72.247 C 271.507 73.321,273.397 75.201,274.533 76.424 C 275.670 77.648,276.244 78.188,275.810 77.624 C 274.348 75.729,271.412 72.745,269.800 71.515 C 268.704 70.679,268.872 70.909,270.333 72.247 M267.300 144.101 C 228.085 183.315,196.000 215.535,196.000 215.700 C 196.000 215.865,196.315 215.997,196.700 215.994 C 197.182 215.990,197.249 215.892,196.914 215.679 C 196.592 215.475,219.694 192.105,265.414 146.386 C 303.356 108.444,334.400 77.559,334.400 77.753 C 334.400 77.946,333.275 79.404,331.900 80.992 C 330.525 82.580,324.990 89.066,319.600 95.406 C 314.210 101.745,306.020 111.364,301.400 116.781 C 296.780 122.199,292.753 126.984,292.450 127.415 C 291.605 128.621,294.884 124.991,298.800 120.387 C 300.010 118.965,301.387 117.350,301.861 116.800 C 303.071 115.394,312.545 104.245,314.760 101.620 C 316.831 99.167,319.298 96.302,319.600 96.000 C 319.710 95.890,320.790 94.630,322.000 93.200 C 323.210 91.770,324.585 90.150,325.056 89.600 C 327.797 86.397,331.639 81.864,333.200 79.990 C 335.107 77.700,337.469 74.962,338.300 74.076 C 338.735 73.612,338.990 72.799,338.700 72.801 C 338.645 72.801,306.515 104.886,267.300 144.101 M278.497 81.695 C 279.434 83.067,280.870 85.452,281.689 86.995 C 282.509 88.538,283.184 89.659,283.189 89.487 C 283.223 88.475,277.737 79.216,277.097 79.205 C 276.930 79.202,277.560 80.323,278.497 81.695 M284.812 94.400 C 284.812 94.730,284.987 95.270,285.200 95.600 C 285.545 96.133,285.588 96.133,285.588 95.600 C 285.588 95.270,285.413 94.730,285.200 94.400 C 284.855 93.867,284.812 93.867,284.812 94.400 M158.898 95.131 C 158.500 95.384,158.417 103.029,158.498 132.025 L 158.600 168.600 192.300 168.702 C 210.835 168.759,225.997 168.939,225.993 169.102 C 225.986 169.413,220.771 175.066,209.623 186.849 C 195.417 201.863,195.576 201.705,184.184 212.200 C 181.557 214.620,178.560 217.381,177.524 218.336 C 176.488 219.291,175.460 219.961,175.240 219.825 C 174.888 219.607,174.000 220.731,174.000 221.394 C 174.000 222.003,175.086 221.093,181.608 215.026 C 183.042 213.692,186.282 210.716,188.808 208.413 C 194.584 203.146,196.693 201.037,204.615 192.604 C 208.127 188.866,212.634 184.096,214.631 182.004 C 225.510 170.607,226.570 169.399,226.205 168.808 C 226.037 168.536,214.845 168.400,192.584 168.400 L 159.215 168.400 158.998 167.500 C 158.878 167.005,158.830 150.580,158.890 131.000 L 159.000 95.400 184.800 95.196 L 210.600 94.991 185.000 94.902 C 170.920 94.853,159.174 94.956,158.898 95.131 M214.200 95.623 C 215.080 95.805,216.340 95.943,217.000 95.930 L 218.200 95.905 217.000 95.600 C 216.340 95.432,215.080 95.294,214.200 95.293 L 212.600 95.292 214.200 95.623 M219.800 96.400 C 220.240 96.589,220.960 96.744,221.400 96.744 L 222.200 96.744 221.400 96.400 C 220.960 96.211,220.240 96.056,219.800 96.056 L 219.000 96.056 219.800 96.400 M223.400 97.200 C 223.840 97.389,224.470 97.544,224.800 97.544 C 225.178 97.544,225.104 97.417,224.600 97.200 C 224.160 97.011,223.530 96.856,223.200 96.856 C 222.822 96.856,222.896 96.983,223.400 97.200 M285.612 97.200 C 285.612 97.530,285.787 98.070,286.000 98.400 C 286.345 98.933,286.388 98.933,286.388 98.400 C 286.388 98.070,286.213 97.530,286.000 97.200 C 285.655 96.667,285.612 96.667,285.612 97.200 M227.000 98.400 C 229.106 99.375,229.781 99.375,228.000 98.400 C 227.230 97.978,226.330 97.639,226.000 97.646 C 225.670 97.654,226.120 97.993,227.000 98.400 M229.600 99.379 C 229.600 99.489,230.140 99.859,230.800 100.200 C 231.460 100.541,232.000 100.731,232.000 100.621 C 232.000 100.511,231.460 100.141,230.800 99.800 C 230.140 99.459,229.600 99.269,229.600 99.379 M286.468 100.000 C 286.488 101.039,287.118 102.746,287.132 101.800 C 287.138 101.360,286.989 100.640,286.800 100.200 C 286.589 99.710,286.461 99.632,286.468 100.000 M235.031 103.424 C 236.589 104.951,238.172 106.650,238.549 107.200 C 239.176 108.115,239.176 108.090,238.540 106.915 C 237.645 105.259,235.380 102.825,233.600 101.606 C 232.768 101.036,233.349 101.774,235.031 103.424 M287.268 104.000 C 287.262 104.550,287.411 105.360,287.600 105.800 L 287.944 106.600 287.932 105.800 C 287.926 105.360,287.776 104.550,287.600 104.000 L 287.280 103.000 287.268 104.000 M288.046 108.255 C 288.015 108.830,286.459 110.393,283.300 113.024 C 280.715 115.176,267.935 127.569,254.900 140.564 C 241.865 153.559,231.200 164.044,231.200 163.865 C 231.200 163.686,233.045 161.022,235.300 157.944 C 241.202 149.889,241.700 149.167,241.501 148.968 C 241.402 148.869,240.674 149.736,239.883 150.894 C 239.091 152.052,236.990 154.980,235.214 157.400 C 230.379 163.986,228.736 166.400,229.086 166.400 C 229.260 166.400,239.932 155.860,252.801 142.978 C 265.671 130.096,278.270 117.814,280.800 115.684 C 287.656 109.912,288.514 109.051,288.289 108.167 C 288.112 107.477,288.088 107.485,288.046 108.255 M240.812 112.400 C 240.812 112.730,240.987 113.270,241.200 113.600 C 241.545 114.133,241.588 114.133,241.588 113.600 C 241.588 113.270,241.413 112.730,241.200 112.400 C 240.855 111.867,240.812 111.867,240.812 112.400 M241.668 115.400 C 241.674 115.840,241.824 116.650,242.000 117.200 L 242.320 118.200 242.332 117.200 C 242.338 116.650,242.189 115.840,242.000 115.400 L 241.656 114.600 241.668 115.400 M242.600 132.609 C 242.600 139.831,242.714 145.214,242.853 144.570 C 243.199 142.964,243.220 122.973,242.877 121.038 C 242.725 120.179,242.600 125.386,242.600 132.609 M290.272 131.819 C 289.902 132.593,289.613 133.446,289.628 133.714 C 289.644 133.981,290.008 133.409,290.437 132.442 C 291.371 130.337,291.231 129.808,290.272 131.819 M289.000 135.200 C 288.850 135.673,288.817 136.150,288.927 136.260 C 289.037 136.370,289.250 136.073,289.400 135.600 C 289.550 135.127,289.583 134.650,289.473 134.540 C 289.363 134.430,289.150 134.727,289.000 135.200 M288.282 137.950 C 288.127 138.692,288.020 139.773,288.044 140.350 C 288.073 141.042,288.210 140.787,288.447 139.600 C 288.645 138.610,288.752 137.530,288.685 137.200 C 288.619 136.870,288.438 137.208,288.282 137.950 M288.000 145.400 C 288.000 146.683,288.113 147.620,288.251 147.482 C 288.551 147.182,288.519 143.586,288.214 143.280 C 288.096 143.163,288.000 144.117,288.000 145.400 M241.800 147.200 C 241.650 147.673,241.617 148.150,241.727 148.260 C 241.837 148.370,242.050 148.073,242.200 147.600 C 242.350 147.127,242.383 146.650,242.273 146.540 C 242.163 146.430,241.950 146.727,241.800 147.200 M287.422 150.222 C 287.272 151.025,287.238 151.772,287.348 151.882 C 287.458 151.992,287.672 151.425,287.822 150.622 C 287.973 149.819,288.006 149.073,287.896 148.963 C 287.786 148.853,287.573 149.419,287.422 150.222 M286.600 154.000 C 286.448 154.691,286.414 155.347,286.524 155.457 C 286.634 155.567,286.848 155.091,287.000 154.400 C 287.152 153.709,287.186 153.053,287.076 152.943 C 286.966 152.833,286.752 153.309,286.600 154.000 M285.829 157.029 C 285.681 157.615,285.638 158.172,285.732 158.266 C 285.827 158.360,286.024 157.958,286.171 157.371 C 286.319 156.785,286.362 156.228,286.268 156.134 C 286.173 156.040,285.976 156.442,285.829 157.029 M285.000 159.600 C 284.850 160.073,284.817 160.550,284.927 160.660 C 285.037 160.770,285.250 160.473,285.400 160.000 C 285.550 159.527,285.583 159.050,285.473 158.940 C 285.363 158.830,285.150 159.127,285.000 159.600 M283.055 164.655 C 282.676 165.449,282.453 166.186,282.559 166.293 C 282.666 166.399,283.036 165.809,283.382 164.982 C 284.198 163.029,283.949 162.780,283.055 164.655 M281.400 168.000 C 281.059 168.660,280.869 169.200,280.979 169.200 C 281.089 169.200,281.459 168.660,281.800 168.000 C 282.141 167.340,282.331 166.800,282.221 166.800 C 282.111 166.800,281.741 167.340,281.400 168.000 M279.006 171.894 C 278.173 173.162,275.941 175.727,274.046 177.592 C 272.151 179.458,271.154 180.593,271.831 180.114 C 274.450 178.262,281.255 170.322,280.699 169.766 C 280.601 169.668,279.840 170.626,279.006 171.894 M264.018 184.451 C 261.938 185.523,260.457 186.400,260.728 186.400 C 261.328 186.400,266.291 183.905,267.400 183.045 C 268.562 182.145,268.210 182.291,264.018 184.451 M256.400 187.600 C 255.867 187.945,255.867 187.988,256.400 187.988 C 256.730 187.988,257.270 187.813,257.600 187.600 C 258.133 187.255,258.133 187.212,257.600 187.212 C 257.270 187.212,256.730 187.387,256.400 187.600 M253.800 188.400 L 253.000 188.744 253.800 188.766 C 254.240 188.778,254.870 188.613,255.200 188.400 C 255.995 187.886,254.996 187.886,253.800 188.400 M251.000 189.200 C 250.615 189.823,251.159 190.401,252.124 190.394 C 252.839 190.389,252.890 190.315,252.400 189.994 C 251.867 189.644,251.867 189.556,252.400 189.206 C 252.890 188.885,252.839 188.811,252.124 188.806 C 251.642 188.803,251.136 188.980,251.000 189.200 M254.200 190.800 C 254.640 190.989,255.360 191.144,255.800 191.144 L 256.600 191.144 255.800 190.800 C 255.360 190.611,254.640 190.456,254.200 190.456 L 253.400 190.456 254.200 190.800 M262.758 193.637 C 263.725 194.066,264.600 194.334,264.702 194.232 C 264.924 194.010,262.094 192.788,261.451 192.828 C 261.203 192.844,261.791 193.208,262.758 193.637 M265.233 194.552 C 265.641 194.924,269.600 196.793,269.600 196.613 C 269.600 196.388,265.780 194.400,265.347 194.400 C 265.193 194.400,265.142 194.468,265.233 194.552 M270.038 196.971 C 270.132 197.065,271.644 198.079,273.399 199.225 C 277.293 201.767,281.456 205.723,283.897 209.200 C 286.008 212.209,286.713 213.019,285.984 211.600 C 284.272 208.268,278.362 202.178,273.915 199.163 C 271.011 197.194,269.284 196.217,270.038 196.971 M158.667 209.067 C 158.520 209.213,158.395 215.558,158.390 223.167 L 158.379 237.000 114.146 281.323 C 75.436 320.113,65.556 329.781,70.852 323.688 C 71.594 322.836,77.870 315.691,84.800 307.810 C 111.718 277.202,111.251 277.756,111.182 276.520 C 111.173 276.344,110.829 276.830,110.419 277.600 C 109.752 278.852,105.581 283.835,101.044 288.800 C 100.139 289.790,98.229 291.950,96.800 293.600 C 95.370 295.250,94.110 296.690,94.000 296.800 C 93.890 296.910,92.630 298.350,91.200 300.000 C 89.770 301.650,88.507 303.090,88.392 303.200 C 88.278 303.310,85.717 306.217,82.703 309.661 C 79.688 313.104,76.992 316.164,76.711 316.461 C 76.430 316.758,75.030 318.351,73.600 320.001 C 72.171 321.650,70.910 323.090,70.800 323.200 C 70.690 323.310,69.429 324.748,68.000 326.396 C 66.570 328.044,65.069 329.754,64.665 330.196 C 64.261 330.638,63.559 331.516,63.105 332.146 L 62.280 333.293 63.097 332.855 C 63.547 332.614,85.264 310.955,111.357 284.723 L 158.800 237.029 158.800 223.747 C 158.800 216.442,158.909 210.181,159.043 209.833 C 159.256 209.277,160.603 209.200,170.043 209.200 C 181.144 209.200,181.248 209.216,180.386 210.826 C 180.158 211.252,180.064 211.600,180.176 211.600 C 180.388 211.600,181.600 209.404,181.600 209.020 C 181.600 208.702,158.985 208.748,158.667 209.067 M178.322 214.100 C 176.718 216.519,175.894 218.000,176.150 218.000 C 176.295 218.000,178.443 214.720,179.752 212.500 C 180.573 211.108,179.535 212.270,178.322 214.100 M287.499 214.768 C 288.103 215.850,288.665 216.668,288.747 216.586 C 288.921 216.412,286.857 212.800,286.583 212.800 C 286.483 212.800,286.895 213.686,287.499 214.768 M208.033 216.146 C 208.125 216.226,211.080 216.385,214.600 216.500 C 218.404 216.623,220.108 216.580,218.800 216.394 C 216.589 216.078,207.722 215.873,208.033 216.146 M224.000 217.200 C 224.550 217.376,225.540 217.517,226.200 217.513 L 227.400 217.505 226.200 217.200 C 225.540 217.032,224.550 216.891,224.000 216.887 L 223.000 216.880 224.000 217.200 M288.817 217.500 C 288.839 217.901,290.362 220.670,290.383 220.349 C 290.411 219.935,289.205 217.200,288.995 217.200 C 288.888 217.200,288.808 217.335,288.817 217.500 M228.600 218.000 C 229.040 218.189,229.760 218.344,230.200 218.344 L 231.000 218.344 230.200 218.000 C 229.760 217.811,229.040 217.656,228.600 217.656 L 227.800 217.656 228.600 218.000 M191.700 219.816 C 190.214 221.372,190.175 221.467,191.017 221.467 C 191.356 221.467,191.935 220.957,192.303 220.333 C 192.671 219.710,193.114 219.200,193.286 219.200 C 193.459 219.200,193.600 219.020,193.600 218.800 C 193.600 218.111,193.045 218.408,191.700 219.816 M232.000 218.800 C 232.330 219.013,232.870 219.188,233.200 219.188 C 233.733 219.188,233.733 219.145,233.200 218.800 C 232.870 218.587,232.330 218.412,232.000 218.412 C 231.467 218.412,231.467 218.455,232.000 218.800 M236.341 220.793 C 237.697 221.670,240.011 223.605,241.485 225.093 C 243.437 227.066,243.798 227.329,242.817 226.061 C 241.329 224.139,237.400 220.731,235.598 219.799 C 233.490 218.709,233.840 219.177,236.341 220.793 M290.412 221.200 C 290.412 221.530,290.587 222.070,290.800 222.400 C 291.145 222.933,291.188 222.933,291.188 222.400 C 291.188 222.070,291.013 221.530,290.800 221.200 C 290.455 220.667,290.412 220.667,290.412 221.200 M171.169 240.329 C 127.974 283.852,96.948 315.641,95.849 317.500 C 95.417 318.229,95.748 318.114,96.839 317.155 C 97.367 316.691,98.610 315.656,99.600 314.855 C 100.590 314.055,101.490 313.310,101.600 313.200 C 106.941 307.859,110.015 305.654,110.800 306.600 C 111.074 306.930,111.480 307.200,111.703 307.200 C 111.926 307.200,111.650 306.840,111.091 306.400 C 109.647 305.264,109.649 305.264,105.882 308.814 C 100.084 314.279,98.087 315.447,102.505 310.791 C 122.296 289.930,189.812 221.679,190.237 222.104 C 190.437 222.304,188.610 224.852,183.443 231.577 C 183.115 232.004,183.119 232.082,183.458 231.879 C 183.856 231.641,191.200 222.149,191.200 221.873 C 191.200 220.457,187.588 223.785,171.169 240.329 M291.212 223.600 C 291.212 223.930,291.387 224.470,291.600 224.800 C 291.945 225.333,291.988 225.333,291.988 224.800 C 291.988 224.470,291.813 223.930,291.600 223.600 C 291.255 223.067,291.212 223.067,291.212 223.600 M292.034 226.400 C 292.046 226.730,292.211 227.360,292.400 227.800 L 292.744 228.600 292.766 227.800 C 292.778 227.360,292.613 226.730,292.400 226.400 C 292.055 225.867,292.015 225.867,292.034 226.400 M292.868 229.400 C 292.874 229.840,293.024 230.650,293.200 231.200 L 293.520 232.200 293.532 231.200 C 293.538 230.650,293.389 229.840,293.200 229.400 L 292.856 228.600 292.868 229.400 M177.124 239.885 C 170.028 249.164,170.289 248.805,170.677 248.774 C 170.855 248.760,173.430 245.506,176.400 241.544 C 179.370 237.582,182.130 233.904,182.533 233.370 C 182.937 232.837,183.173 232.400,183.057 232.400 C 182.942 232.400,180.272 235.768,177.124 239.885 M293.687 233.600 C 293.691 234.150,293.832 235.140,294.000 235.800 L 294.305 237.000 294.313 235.800 C 294.317 235.140,294.176 234.150,294.000 233.600 L 293.680 232.600 293.687 233.600 M247.212 234.800 C 247.212 235.130,247.387 235.670,247.600 236.000 C 247.945 236.533,247.988 236.533,247.988 236.000 C 247.988 235.670,247.813 235.130,247.600 234.800 C 247.255 234.267,247.212 234.267,247.212 234.800 M248.056 237.400 C 248.056 237.840,248.211 238.560,248.400 239.000 L 248.744 239.800 248.744 239.000 C 248.744 238.560,248.589 237.840,248.400 237.400 L 248.056 236.600 248.056 237.400 M294.681 241.600 C 294.803 243.470,294.970 245.075,295.051 245.167 C 295.333 245.482,295.105 240.598,294.782 239.400 C 294.589 238.684,294.548 239.571,294.681 241.600 M248.887 241.200 C 248.891 241.750,249.032 242.740,249.200 243.400 L 249.505 244.600 249.513 243.400 C 249.517 242.740,249.376 241.750,249.200 241.200 L 248.880 240.200 248.887 241.200 M249.729 260.400 C 249.729 268.515,249.851 273.314,250.012 271.600 C 250.168 269.950,250.295 264.910,250.295 260.400 C 250.295 255.890,250.168 250.850,250.012 249.200 C 249.851 247.486,249.729 252.285,249.729 260.400 M169.544 249.900 C 168.252 251.460,167.919 252.000,168.251 251.995 C 168.443 251.992,169.007 251.362,169.504 250.595 C 170.472 249.101,170.492 248.756,169.544 249.900 M295.380 263.400 C 295.380 271.100,295.434 274.193,295.499 270.274 C 295.565 266.355,295.565 260.055,295.499 256.274 C 295.434 252.493,295.380 255.700,295.380 263.400 M165.142 255.700 C 163.770 257.515,161.872 259.733,160.924 260.628 C 159.976 261.523,159.207 262.513,159.216 262.828 C 159.225 263.143,159.498 262.910,159.824 262.310 C 160.149 261.711,160.757 261.037,161.176 260.813 C 161.594 260.589,163.145 258.829,164.622 256.903 C 166.099 254.976,167.485 253.175,167.703 252.900 C 167.920 252.625,167.994 252.400,167.867 252.400 C 167.740 252.400,166.514 253.885,165.142 255.700 M158.650 265.250 C 158.292 267.039,158.340 306.716,158.700 306.938 C 158.865 307.040,159.000 297.420,159.000 285.561 C 159.000 273.702,158.978 264.000,158.950 264.000 C 158.923 264.000,158.788 264.563,158.650 265.250 M112.200 272.800 C 112.050 273.273,112.017 273.750,112.127 273.860 C 112.237 273.970,112.450 273.673,112.600 273.200 C 112.750 272.727,112.783 272.250,112.673 272.140 C 112.563 272.030,112.350 272.327,112.200 272.800 M249.018 278.618 C 248.865 279.639,248.830 280.563,248.940 280.673 C 249.050 280.783,249.265 280.039,249.418 279.018 C 249.571 277.998,249.606 277.073,249.496 276.963 C 249.386 276.853,249.171 277.598,249.018 278.618 M294.615 283.524 C 294.450 285.132,294.408 286.541,294.522 286.655 C 294.800 286.933,295.338 281.806,295.102 281.130 C 295.000 280.839,294.781 281.916,294.615 283.524 M248.229 283.029 C 248.081 283.615,248.038 284.172,248.132 284.266 C 248.227 284.360,248.424 283.958,248.571 283.371 C 248.719 282.785,248.762 282.228,248.668 282.134 C 248.573 282.040,248.376 282.442,248.229 283.029 M247.400 286.000 C 247.250 286.473,247.217 286.950,247.327 287.060 C 247.437 287.170,247.650 286.873,247.800 286.400 C 247.950 285.927,247.983 285.450,247.873 285.340 C 247.763 285.230,247.550 285.527,247.400 286.000 M246.600 288.400 C 246.450 288.873,246.417 289.350,246.527 289.460 C 246.637 289.570,246.850 289.273,247.000 288.800 C 247.150 288.327,247.183 287.850,247.073 287.740 C 246.963 287.630,246.750 287.927,246.600 288.400 M293.854 289.554 C 293.700 290.518,293.658 291.391,293.761 291.494 C 294.030 291.763,294.515 288.945,294.307 288.322 C 294.212 288.036,294.008 288.590,293.854 289.554 M243.639 294.187 C 241.989 296.678,239.732 299.039,238.158 299.919 C 237.745 300.151,237.535 300.469,237.693 300.626 C 238.113 301.046,243.646 295.282,244.726 293.300 C 246.065 290.839,245.609 291.212,243.639 294.187 M293.000 294.000 C 292.848 294.691,292.814 295.347,292.924 295.457 C 293.034 295.567,293.248 295.091,293.400 294.400 C 293.552 293.709,293.586 293.053,293.476 292.943 C 293.366 292.833,293.152 293.309,293.000 294.000 M292.229 297.429 C 292.081 298.015,292.038 298.572,292.132 298.666 C 292.227 298.760,292.424 298.358,292.571 297.771 C 292.719 297.185,292.762 296.628,292.668 296.534 C 292.573 296.440,292.376 296.842,292.229 297.429 M291.429 300.229 C 291.281 300.815,291.251 301.384,291.361 301.494 C 291.471 301.604,291.681 301.215,291.829 300.629 C 291.976 300.042,292.006 299.473,291.896 299.363 C 291.786 299.253,291.576 299.642,291.429 300.229 M235.000 302.000 C 233.900 302.652,233.164 303.189,233.365 303.193 C 233.803 303.201,237.200 301.244,237.200 300.983 C 237.200 300.703,237.139 300.731,235.000 302.000 M229.000 304.400 L 228.200 304.744 229.000 304.766 C 229.440 304.778,230.070 304.613,230.400 304.400 C 231.195 303.886,230.196 303.886,229.000 304.400 M225.800 305.200 L 225.000 305.544 225.800 305.544 C 226.240 305.544,226.960 305.389,227.400 305.200 L 228.200 304.856 227.400 304.856 C 226.960 304.856,226.240 305.011,225.800 305.200 M222.200 306.000 L 221.400 306.344 222.200 306.344 C 222.640 306.344,223.360 306.189,223.800 306.000 L 224.600 305.656 223.800 305.656 C 223.360 305.656,222.640 305.811,222.200 306.000 M214.000 306.800 L 210.600 307.051 214.200 307.078 C 216.180 307.093,218.340 306.968,219.000 306.800 L 220.200 306.495 218.800 306.522 C 218.030 306.537,215.870 306.662,214.000 306.800 M112.941 307.733 C 113.084 308.136,113.200 316.821,113.200 327.033 C 113.200 337.245,113.335 345.600,113.500 345.600 C 114.013 345.600,113.650 307.885,113.133 307.412 C 112.807 307.114,112.754 307.203,112.941 307.733 M287.078 311.005 C 286.712 311.772,286.495 312.400,286.596 312.400 C 286.870 312.400,288.084 309.951,287.901 309.768 C 287.814 309.681,287.444 310.238,287.078 311.005 M285.225 314.247 C 283.056 317.924,278.426 323.456,275.145 326.292 C 271.401 329.527,270.452 330.572,273.291 328.334 C 278.175 324.482,287.169 313.836,286.285 312.952 C 286.183 312.850,285.706 313.432,285.225 314.247 M69.600 325.853 C 69.600 326.114,68.001 327.600,67.720 327.600 C 67.634 327.600,67.886 327.156,68.281 326.613 C 68.965 325.673,69.600 325.307,69.600 325.853 M270.000 330.413 C 269.450 330.850,267.602 332.043,265.894 333.064 C 264.186 334.086,262.861 334.994,262.950 335.084 C 263.183 335.316,268.629 332.005,270.134 330.716 C 271.595 329.466,271.490 329.229,270.000 330.413 M258.600 336.800 C 257.720 337.207,257.270 337.546,257.600 337.554 C 257.930 337.561,258.830 337.222,259.600 336.800 C 261.381 335.825,260.706 335.825,258.600 336.800 M248.400 340.400 C 247.867 340.745,247.867 340.788,248.400 340.788 C 248.730 340.788,249.270 340.613,249.600 340.400 C 250.133 340.055,250.133 340.012,249.600 340.012 C 249.270 340.012,248.730 340.187,248.400 340.400 M242.600 342.000 L 241.800 342.344 242.600 342.366 C 243.040 342.378,243.670 342.213,244.000 342.000 C 244.795 341.486,243.796 341.486,242.600 342.000 M238.400 342.800 L 237.400 343.120 238.400 343.120 C 238.950 343.120,239.850 342.976,240.400 342.800 L 241.400 342.480 240.400 342.480 C 239.850 342.480,238.950 342.624,238.400 342.800 M233.600 343.600 L 232.600 343.920 233.600 343.920 C 234.150 343.920,235.050 343.776,235.600 343.600 L 236.600 343.280 235.600 343.280 C 235.050 343.280,234.150 343.424,233.600 343.600 M228.200 344.400 L 226.600 344.686 228.200 344.703 C 229.080 344.713,230.250 344.576,230.800 344.400 L 231.800 344.080 230.800 344.097 C 230.250 344.106,229.080 344.242,228.200 344.400 M217.200 345.200 L 214.200 345.456 217.200 345.488 C 218.850 345.506,221.190 345.384,222.400 345.217 L 224.600 344.913 222.400 344.928 C 221.190 344.937,218.850 345.059,217.200 345.200 " stroke="none" fill="#7ca4d4" fill-rule="evenodd"></path><path id="path4" d="M113.300 54.265 C 113.025 54.376,112.800 54.756,112.800 55.110 C 112.800 55.682,112.855 55.679,113.300 55.076 C 113.764 54.447,117.189 54.391,161.000 54.298 L 208.200 54.197 161.000 54.130 C 135.040 54.093,113.575 54.154,113.300 54.265 M211.091 54.689 C 211.801 54.777,213.061 54.779,213.891 54.692 C 214.721 54.605,214.140 54.533,212.600 54.531 C 211.060 54.529,210.381 54.600,211.091 54.689 M219.300 55.091 C 220.125 55.178,221.475 55.178,222.300 55.091 C 223.125 55.005,222.450 54.934,220.800 54.934 C 219.150 54.934,218.475 55.005,219.300 55.091 M227.905 55.883 C 228.402 55.979,229.122 55.975,229.505 55.875 C 229.887 55.775,229.480 55.696,228.600 55.701 C 227.720 55.705,227.407 55.787,227.905 55.883 M233.105 56.683 C 233.602 56.779,234.322 56.775,234.705 56.675 C 235.087 56.575,234.680 56.496,233.800 56.501 C 232.920 56.505,232.607 56.587,233.105 56.683 M237.300 57.476 C 237.685 57.576,238.315 57.576,238.700 57.476 C 239.085 57.375,238.770 57.293,238.000 57.293 C 237.230 57.293,236.915 57.375,237.300 57.476 M266.400 68.546 C 266.400 68.656,266.940 69.130,267.600 69.600 C 268.260 70.070,268.800 70.364,268.800 70.254 C 268.800 70.144,268.260 69.670,267.600 69.200 C 266.940 68.730,266.400 68.436,266.400 68.546 M316.219 94.490 L 291.400 119.380 315.221 95.690 C 335.817 75.207,341.839 69.529,339.605 72.700 C 339.333 73.085,339.671 72.777,340.356 72.015 C 341.518 70.722,341.965 69.600,341.319 69.600 C 341.165 69.600,329.870 80.801,316.219 94.490 M273.789 74.900 C 275.083 76.385,276.217 77.600,276.308 77.600 C 276.573 77.600,273.383 73.881,272.362 73.000 C 271.853 72.560,272.495 73.415,273.789 74.900 M335.800 77.089 C 334.260 78.941,332.399 81.208,331.663 82.128 L 330.327 83.800 331.799 82.200 C 334.546 79.214,338.909 73.975,338.754 73.849 C 338.669 73.780,337.340 75.238,335.800 77.089 M280.760 84.200 C 281.434 85.505,281.988 86.228,281.985 85.800 C 281.983 85.580,281.614 84.950,281.164 84.400 C 280.621 83.736,280.485 83.669,280.760 84.200 M328.575 85.700 L 327.400 87.000 328.700 85.825 C 329.415 85.179,330.000 84.594,330.000 84.525 C 330.000 84.216,329.670 84.488,328.575 85.700 M284.313 91.819 C 284.684 92.820,285.039 93.482,285.103 93.291 C 285.231 92.906,284.093 90.000,283.814 90.000 C 283.717 90.000,283.942 90.819,284.313 91.819 M323.775 91.300 L 322.600 92.600 323.900 91.425 C 324.615 90.779,325.200 90.194,325.200 90.125 C 325.200 89.816,324.870 90.088,323.775 91.300 M159.384 95.700 C 159.279 95.975,159.240 112.400,159.297 132.200 L 159.400 168.200 192.782 168.302 C 214.376 168.368,226.306 168.546,226.565 168.805 C 226.832 169.072,226.305 169.904,224.983 171.303 L 223.000 173.400 225.100 171.415 C 229.033 167.697,231.842 168.000,193.400 168.000 L 159.600 168.000 159.600 131.803 L 159.600 95.606 185.500 95.500 L 211.400 95.394 185.487 95.297 C 165.054 95.221,159.535 95.306,159.384 95.700 M319.201 96.598 C 318.686 97.148,318.339 97.664,318.432 97.746 C 318.524 97.828,319.019 97.378,319.530 96.747 C 320.676 95.335,320.474 95.244,319.201 96.598 M215.705 96.287 C 216.314 96.379,217.214 96.377,217.705 96.282 C 218.197 96.187,217.700 96.111,216.600 96.114 C 215.500 96.117,215.097 96.195,215.705 96.287 M220.500 97.076 C 220.885 97.176,221.515 97.176,221.900 97.076 C 222.285 96.975,221.970 96.893,221.200 96.893 C 220.430 96.893,220.115 96.975,220.500 97.076 M315.589 100.900 C 312.766 104.212,311.885 105.382,313.538 103.623 C 315.424 101.617,318.109 98.400,317.897 98.400 C 317.800 98.400,316.761 99.525,315.589 100.900 M230.800 100.524 C 230.800 100.617,231.565 101.198,232.500 101.815 C 233.435 102.432,233.989 102.680,233.731 102.368 C 233.234 101.767,230.800 100.236,230.800 100.524 M288.093 105.600 C 288.093 106.370,288.175 106.685,288.276 106.300 C 288.376 105.915,288.376 105.285,288.276 104.900 C 288.175 104.515,288.093 104.830,288.093 105.600 M310.171 107.300 C 307.902 109.785,307.062 110.800,307.270 110.800 C 307.386 110.800,308.419 109.720,309.567 108.400 C 311.762 105.877,312.203 105.073,310.171 107.300 M286.800 110.700 L 285.000 112.497 286.900 111.000 C 287.945 110.177,288.800 109.345,288.800 109.152 C 288.800 108.688,288.866 108.637,286.800 110.700 M239.913 111.419 C 240.284 112.420,240.639 113.082,240.703 112.891 C 240.831 112.506,239.693 109.600,239.414 109.600 C 239.317 109.600,239.542 110.419,239.913 111.419 M305.375 112.900 L 304.200 114.200 305.500 113.025 C 306.215 112.379,306.800 111.794,306.800 111.725 C 306.800 111.416,306.470 111.688,305.375 112.900 M280.575 116.100 L 279.400 117.400 280.700 116.225 C 281.415 115.579,282.000 114.994,282.000 114.925 C 282.000 114.616,281.670 114.888,280.575 116.100 M274.221 121.654 C 271.886 123.884,270.029 125.762,270.094 125.828 C 270.160 125.894,272.162 124.069,274.542 121.774 C 276.923 119.478,278.780 117.600,278.669 117.600 C 278.558 117.600,276.557 119.424,274.221 121.654 M242.131 121.800 C 242.133 123.340,242.205 123.921,242.292 123.091 C 242.379 122.261,242.377 121.001,242.289 120.291 C 242.200 119.581,242.129 120.260,242.131 121.800 M296.001 123.798 C 295.486 124.348,295.139 124.864,295.232 124.946 C 295.324 125.028,295.819 124.578,296.330 123.947 C 297.476 122.535,297.274 122.444,296.001 123.798 M293.263 127.051 C 292.101 128.460,291.306 130.229,292.037 129.777 C 292.237 129.654,292.400 129.334,292.400 129.068 C 292.400 128.801,292.953 127.911,293.629 127.091 C 294.305 126.271,294.768 125.600,294.658 125.600 C 294.548 125.600,293.920 126.253,293.263 127.051 M242.567 133.400 C 242.567 137.580,242.626 139.236,242.698 137.079 C 242.771 134.923,242.770 131.503,242.698 129.479 C 242.625 127.456,242.566 129.220,242.567 133.400 M246.503 149.674 C 230.651 165.499,226.267 169.508,229.205 165.495 C 229.805 164.676,229.895 164.410,229.450 164.771 C 228.374 165.645,227.516 167.501,228.038 167.823 C 228.286 167.977,236.212 160.361,246.536 150.049 C 256.471 140.125,264.510 132.006,264.400 132.007 C 264.290 132.007,256.236 139.958,246.503 149.674 M288.893 138.000 C 288.893 138.770,288.975 139.085,289.076 138.700 C 289.176 138.315,289.176 137.685,289.076 137.300 C 288.975 136.915,288.893 137.230,288.893 138.000 M288.501 141.000 C 288.505 141.880,288.587 142.193,288.683 141.695 C 288.779 141.198,288.775 140.478,288.675 140.095 C 288.575 139.713,288.496 140.120,288.501 141.000 M242.109 144.000 C 242.109 144.990,242.187 145.395,242.282 144.900 C 242.378 144.405,242.378 143.595,242.282 143.100 C 242.187 142.605,242.109 143.010,242.109 144.000 M264.778 145.900 L 263.400 147.400 264.900 146.022 C 266.296 144.738,266.584 144.400,266.278 144.400 C 266.212 144.400,265.537 145.075,264.778 145.900 M259.986 150.700 L 257.800 153.000 260.100 150.814 C 261.365 149.611,262.400 148.576,262.400 148.514 C 262.400 148.217,262.018 148.563,259.986 150.700 M288.093 149.600 C 288.093 150.370,288.175 150.685,288.276 150.300 C 288.376 149.915,288.376 149.285,288.276 148.900 C 288.175 148.515,288.093 148.830,288.093 149.600 M237.200 154.000 C 236.730 154.660,236.436 155.200,236.546 155.200 C 236.656 155.200,237.130 154.660,237.600 154.000 C 238.070 153.340,238.364 152.800,238.254 152.800 C 238.144 152.800,237.670 153.340,237.200 154.000 M235.529 156.300 C 234.578 157.418,233.128 159.600,233.335 159.600 C 233.440 159.600,234.172 158.700,234.962 157.600 C 236.385 155.619,236.677 154.950,235.529 156.300 M231.600 161.600 C 231.130 162.260,230.836 162.800,230.946 162.800 C 231.056 162.800,231.530 162.260,232.000 161.600 C 232.470 160.940,232.764 160.400,232.654 160.400 C 232.544 160.400,232.070 160.940,231.600 161.600 M223.000 187.858 C 208.040 202.892,195.800 215.419,195.800 215.696 C 195.800 216.072,196.997 216.205,200.501 216.220 L 205.201 216.240 200.601 216.107 C 198.070 216.034,196.000 215.846,196.000 215.688 C 196.000 215.531,208.375 203.027,223.499 187.901 C 238.623 172.775,250.818 160.428,250.599 160.462 C 250.380 160.497,237.960 172.825,223.000 187.858 M280.953 169.700 C 279.576 172.036,279.486 172.235,280.187 171.400 C 281.000 170.432,281.700 169.200,281.438 169.200 C 281.333 169.200,281.115 169.425,280.953 169.700 M277.983 174.100 C 277.240 175.035,276.948 175.546,277.335 175.236 C 278.063 174.651,279.777 172.400,279.494 172.400 C 279.406 172.400,278.726 173.165,277.983 174.100 M218.412 178.188 C 216.559 180.051,215.123 181.628,215.221 181.692 C 215.319 181.756,216.919 180.231,218.775 178.304 C 220.632 176.377,222.068 174.800,221.967 174.800 C 221.865 174.800,220.266 176.324,218.412 178.188 M274.975 177.700 L 273.800 179.000 275.100 177.825 C 275.815 177.179,276.400 176.594,276.400 176.525 C 276.400 176.216,276.070 176.488,274.975 177.700 M269.681 181.772 C 267.823 183.085,267.562 183.461,269.131 182.562 C 269.863 182.143,270.650 181.575,270.880 181.300 C 271.471 180.593,271.193 180.702,269.681 181.772 M211.988 185.100 L 209.400 187.800 212.100 185.212 C 213.585 183.788,214.800 182.573,214.800 182.512 C 214.800 182.217,214.393 182.592,211.988 185.100 M259.400 187.014 C 257.785 187.754,258.751 187.755,260.454 187.016 C 261.194 186.694,261.530 186.439,261.200 186.448 C 260.870 186.457,260.060 186.712,259.400 187.014 M252.812 189.184 C 252.488 189.389,252.363 189.696,252.533 189.867 C 252.704 190.037,252.969 189.978,253.122 189.735 C 253.275 189.492,253.760 189.203,254.200 189.093 L 255.000 188.893 254.200 188.853 C 253.760 188.830,253.135 188.980,252.812 189.184 M204.812 192.588 C 202.959 194.451,201.523 196.028,201.621 196.092 C 201.719 196.156,203.319 194.631,205.175 192.704 C 207.032 190.777,208.468 189.200,208.367 189.200 C 208.265 189.200,206.666 190.724,204.812 192.588 M253.633 190.143 C 253.725 190.221,254.430 190.401,255.200 190.542 C 256.185 190.723,256.422 190.682,256.000 190.406 C 255.458 190.050,253.237 189.803,253.633 190.143 M260.346 192.216 C 261.086 192.537,261.896 192.793,262.146 192.784 C 262.396 192.776,261.994 192.506,261.254 192.184 C 260.514 191.863,259.704 191.607,259.454 191.616 C 259.204 191.624,259.606 191.894,260.346 192.216 M198.388 199.500 L 195.800 202.200 198.500 199.612 C 199.985 198.188,201.200 196.973,201.200 196.912 C 201.200 196.617,200.793 196.992,198.388 199.500 M276.000 200.093 C 276.000 200.188,277.395 201.503,279.100 203.016 C 280.805 204.530,281.840 205.350,281.400 204.839 C 280.482 203.773,276.000 199.834,276.000 200.093 M193.600 204.200 C 192.628 205.190,191.923 206.000,192.033 206.000 C 192.143 206.000,193.028 205.190,194.000 204.200 C 194.972 203.210,195.677 202.400,195.567 202.400 C 195.457 202.400,194.572 203.210,193.600 204.200 M188.987 208.500 L 186.600 211.000 189.100 208.613 C 191.422 206.395,191.783 206.000,191.487 206.000 C 191.426 206.000,190.301 207.125,188.987 208.500 M285.437 210.500 C 286.249 211.765,286.988 212.800,287.079 212.800 C 287.347 212.800,285.900 210.482,284.890 209.294 C 284.379 208.692,284.625 209.235,285.437 210.500 M159.467 209.467 C 159.320 209.613,159.200 215.867,159.200 223.363 L 159.200 236.992 111.502 284.796 L 63.804 332.600 111.702 284.796 L 159.600 236.993 159.600 223.296 L 159.600 209.600 170.000 209.600 C 175.720 209.600,180.400 209.707,180.400 209.838 C 180.400 209.969,180.070 210.554,179.666 211.138 C 178.656 212.598,178.322 213.200,178.523 213.200 C 178.803 213.200,180.800 210.051,180.800 209.609 C 180.800 209.151,159.921 209.012,159.467 209.467 M183.200 213.800 C 182.228 214.790,181.523 215.600,181.633 215.600 C 181.743 215.600,182.628 214.790,183.600 213.800 C 184.572 212.810,185.277 212.000,185.167 212.000 C 185.057 212.000,184.172 212.810,183.200 213.800 M289.007 216.679 C 289.607 218.114,290.000 218.762,290.000 218.316 C 290.000 217.884,288.785 215.200,288.589 215.200 C 288.479 215.200,288.667 215.866,289.007 216.679 M176.246 216.600 C 175.891 217.150,175.309 218.095,174.953 218.700 L 174.305 219.800 175.110 218.826 C 176.060 217.676,177.321 215.600,177.069 215.600 C 176.971 215.600,176.601 216.050,176.246 216.600 M178.587 218.100 L 176.200 220.600 178.700 218.213 C 181.022 215.995,181.383 215.600,181.087 215.600 C 181.026 215.600,179.901 216.725,178.587 218.100 M208.700 216.693 C 209.635 216.777,211.165 216.777,212.100 216.693 C 213.035 216.609,212.270 216.540,210.400 216.540 C 208.530 216.540,207.765 216.609,208.700 216.693 M166.204 244.900 L 138.197 273.000 165.682 245.617 C 190.974 220.420,195.252 216.392,192.811 220.077 L 191.934 221.400 192.962 220.200 C 193.602 219.453,193.903 218.726,193.760 218.274 C 193.591 217.741,193.713 217.582,194.223 217.674 C 194.605 217.743,194.996 217.575,195.092 217.300 C 195.721 215.501,191.230 219.791,166.204 244.900 M216.700 217.093 C 217.635 217.177,219.165 217.177,220.100 217.093 C 221.035 217.009,220.270 216.940,218.400 216.940 C 216.530 216.940,215.765 217.009,216.700 217.093 M225.105 217.883 C 225.602 217.979,226.322 217.975,226.705 217.875 C 227.087 217.775,226.680 217.696,225.800 217.701 C 224.920 217.705,224.607 217.787,225.105 217.883 M174.671 221.500 C 174.059 222.112,173.923 222.125,173.592 221.600 C 173.288 221.119,173.211 221.182,173.206 221.914 C 173.199 222.917,174.134 222.685,175.182 221.422 C 175.880 220.580,175.539 220.633,174.671 221.500 M190.400 223.200 C 189.930 223.860,189.636 224.400,189.746 224.400 C 189.856 224.400,190.330 223.860,190.800 223.200 C 191.270 222.540,191.564 222.000,191.454 222.000 C 191.344 222.000,190.870 222.540,190.400 223.200 M240.200 224.400 C 241.506 225.720,242.665 226.800,242.775 226.800 C 242.885 226.800,241.906 225.720,240.600 224.400 C 239.294 223.080,238.135 222.000,238.025 222.000 C 237.915 222.000,238.894 223.080,240.200 224.400 M188.000 226.400 C 187.530 227.060,187.236 227.600,187.346 227.600 C 187.456 227.600,187.930 227.060,188.400 226.400 C 188.870 225.740,189.164 225.200,189.054 225.200 C 188.944 225.200,188.470 225.740,188.000 226.400 M243.785 228.700 C 244.402 229.635,244.983 230.400,245.076 230.400 C 245.364 230.400,243.833 227.966,243.232 227.469 C 242.920 227.211,243.168 227.765,243.785 228.700 M293.693 230.800 C 293.693 231.570,293.775 231.885,293.876 231.500 C 293.976 231.115,293.976 230.485,293.876 230.100 C 293.775 229.715,293.693 230.030,293.693 230.800 M184.744 230.700 C 183.593 232.089,183.106 232.800,183.304 232.800 C 183.414 232.800,183.986 232.170,184.573 231.400 C 185.663 229.971,185.795 229.432,184.744 230.700 M246.016 232.654 C 246.007 232.904,246.263 233.714,246.584 234.454 C 246.906 235.194,247.176 235.596,247.184 235.346 C 247.193 235.096,246.937 234.286,246.616 233.546 C 246.294 232.806,246.024 232.404,246.016 232.654 M181.375 235.068 C 180.759 235.876,180.459 236.411,180.709 236.256 C 181.221 235.940,182.953 233.600,182.675 233.600 C 182.576 233.600,181.991 234.261,181.375 235.068 M294.509 235.600 C 294.509 236.590,294.587 236.995,294.682 236.500 C 294.778 236.005,294.778 235.195,294.682 234.700 C 294.587 234.205,294.509 234.610,294.509 235.600 M178.800 238.500 C 177.136 240.621,176.705 241.364,177.920 240.019 C 179.077 238.739,180.507 236.800,180.294 236.800 C 180.206 236.800,179.534 237.565,178.800 238.500 M295.337 243.000 C 295.339 244.760,295.409 245.430,295.493 244.489 C 295.578 243.549,295.577 242.109,295.491 241.289 C 295.405 240.470,295.336 241.240,295.337 243.000 M248.493 241.600 C 248.493 242.370,248.575 242.685,248.676 242.300 C 248.776 241.915,248.776 241.285,248.676 240.900 C 248.575 240.515,248.493 240.830,248.493 241.600 M175.200 243.200 C 174.730 243.860,174.436 244.400,174.546 244.400 C 174.656 244.400,175.130 243.860,175.600 243.200 C 176.070 242.540,176.364 242.000,176.254 242.000 C 176.144 242.000,175.670 242.540,175.200 243.200 M172.800 246.400 C 172.330 247.060,172.036 247.600,172.146 247.600 C 172.256 247.600,172.730 247.060,173.200 246.400 C 173.670 245.740,173.964 245.200,173.854 245.200 C 173.744 245.200,173.270 245.740,172.800 246.400 M249.381 260.400 C 249.381 268.650,249.434 272.025,249.499 267.900 C 249.564 263.775,249.564 257.025,249.499 252.900 C 249.434 248.775,249.381 252.150,249.381 260.400 M295.781 263.200 C 295.781 271.450,295.834 274.825,295.899 270.700 C 295.964 266.575,295.964 259.825,295.899 255.700 C 295.834 251.575,295.781 254.950,295.781 263.200 M169.544 250.700 C 168.393 252.089,167.906 252.800,168.104 252.800 C 168.214 252.800,168.786 252.170,169.373 251.400 C 170.463 249.971,170.595 249.432,169.544 250.700 M166.175 255.068 C 165.559 255.876,165.259 256.411,165.509 256.256 C 166.021 255.940,167.753 253.600,167.475 253.600 C 167.376 253.600,166.791 254.261,166.175 255.068 M162.300 259.824 C 160.815 261.474,159.601 263.044,159.601 263.312 C 159.602 263.581,159.940 263.260,160.351 262.600 C 160.762 261.940,161.678 260.860,162.386 260.200 C 163.554 259.111,165.437 256.784,165.127 256.811 C 165.057 256.818,163.785 258.173,162.300 259.824 M159.395 285.400 L 159.400 307.000 183.200 307.005 L 207.000 307.009 183.303 306.902 L 159.607 306.794 159.498 285.297 L 159.389 263.800 159.395 285.400 M112.509 269.600 C 112.509 270.590,112.587 270.995,112.682 270.500 C 112.778 270.005,112.778 269.195,112.682 268.700 C 112.587 268.205,112.509 268.610,112.509 269.600 M126.796 284.700 L 119.400 292.200 126.900 284.804 C 133.868 277.932,134.581 277.200,134.296 277.200 C 134.239 277.200,130.864 280.575,126.796 284.700 M107.071 281.314 L 104.342 284.600 106.787 282.000 C 108.892 279.760,110.300 277.965,109.914 278.014 C 109.851 278.022,108.572 279.507,107.071 281.314 M248.501 279.800 C 248.505 280.680,248.587 280.993,248.683 280.495 C 248.779 279.998,248.775 279.278,248.675 278.895 C 248.575 278.513,248.496 278.920,248.501 279.800 M295.331 282.600 C 295.333 284.140,295.405 284.721,295.492 283.891 C 295.579 283.061,295.577 281.801,295.489 281.091 C 295.400 280.381,295.329 281.060,295.331 282.600 M101.200 288.000 C 99.835 289.540,98.808 290.800,98.918 290.800 C 99.028 290.800,100.235 289.540,101.600 288.000 C 102.965 286.460,103.992 285.200,103.882 285.200 C 103.772 285.200,102.565 286.460,101.200 288.000 M294.501 289.000 C 294.505 289.880,294.587 290.193,294.683 289.695 C 294.779 289.198,294.775 288.478,294.675 288.095 C 294.575 287.713,294.496 288.120,294.501 289.000 M96.778 293.100 L 95.400 294.600 96.900 293.222 C 98.296 291.938,98.584 291.600,98.278 291.600 C 98.212 291.600,97.537 292.275,96.778 293.100 M293.660 293.267 C 293.627 293.854,293.496 294.664,293.370 295.067 C 293.152 295.760,293.165 295.761,293.595 295.090 C 293.846 294.699,293.977 293.889,293.886 293.290 L 293.720 292.200 293.660 293.267 M112.405 299.358 L 106.610 305.400 112.705 299.405 C 116.057 296.108,118.800 293.363,118.800 293.305 C 118.800 292.823,117.424 294.126,112.405 299.358 M93.781 296.500 L 92.200 298.200 93.900 296.619 C 95.481 295.148,95.784 294.800,95.481 294.800 C 95.416 294.800,94.651 295.565,93.781 296.500 M239.781 298.100 L 238.200 299.800 239.900 298.219 C 241.481 296.748,241.784 296.400,241.481 296.400 C 241.416 296.400,240.651 297.165,239.781 298.100 M236.481 300.572 C 234.623 301.885,234.362 302.261,235.931 301.362 C 236.663 300.943,237.450 300.375,237.680 300.100 C 238.271 299.393,237.993 299.502,236.481 300.572 M88.025 302.969 L 86.650 304.600 88.205 303.113 C 89.060 302.296,89.679 301.562,89.580 301.483 C 89.481 301.403,88.781 302.072,88.025 302.969 M290.891 303.300 C 290.210 305.184,290.304 305.694,291.026 304.030 C 291.353 303.277,291.566 302.499,291.501 302.302 C 291.435 302.105,291.160 302.554,290.891 303.300 M228.800 304.018 C 228.362 304.315,228.524 304.352,229.400 304.156 C 230.871 303.827,231.190 303.598,230.167 303.606 C 229.745 303.609,229.130 303.795,228.800 304.018 M83.600 308.000 C 82.235 309.540,81.208 310.800,81.318 310.800 C 81.428 310.800,82.635 309.540,84.000 308.000 C 85.365 306.460,86.392 305.200,86.282 305.200 C 86.172 305.200,84.965 306.460,83.600 308.000 M289.400 307.061 C 289.064 307.865,288.882 308.615,288.995 308.728 C 289.108 308.841,289.200 308.835,289.200 308.716 C 289.200 308.596,289.472 307.846,289.805 307.049 C 290.138 306.252,290.321 305.600,290.211 305.600 C 290.101 305.600,289.736 306.258,289.400 307.061 M217.507 306.290 C 218.226 306.379,219.306 306.377,219.907 306.286 C 220.508 306.195,219.920 306.122,218.600 306.124 C 217.280 306.126,216.788 306.201,217.507 306.290 M210.700 306.689 C 211.415 306.778,212.585 306.778,213.300 306.689 C 214.015 306.601,213.430 306.528,212.000 306.528 C 210.570 306.528,209.985 306.601,210.700 306.689 M105.600 309.800 C 104.628 310.790,103.923 311.600,104.033 311.600 C 104.143 311.600,105.028 310.790,106.000 309.800 C 106.972 308.810,107.677 308.000,107.567 308.000 C 107.457 308.000,106.572 308.810,105.600 309.800 M100.800 311.400 C 99.161 313.050,97.910 314.400,98.020 314.400 C 98.130 314.400,99.561 313.050,101.200 311.400 C 102.839 309.750,104.090 308.400,103.980 308.400 C 103.870 308.400,102.439 309.750,100.800 311.400 M79.178 313.100 L 77.800 314.600 79.300 313.222 C 80.696 311.938,80.984 311.600,80.678 311.600 C 80.612 311.600,79.937 312.275,79.178 313.100 M101.970 313.100 L 101.000 314.200 102.200 313.200 C 102.860 312.650,103.475 312.155,103.567 312.100 C 103.658 312.045,103.555 312.000,103.336 312.000 C 103.118 312.000,102.503 312.495,101.970 313.100 M97.882 316.454 C 95.378 318.662,94.246 318.822,96.327 316.675 C 97.027 315.953,97.600 315.243,97.600 315.098 C 97.600 314.866,96.643 315.871,92.844 320.096 C 92.302 320.699,91.990 321.323,92.151 321.484 C 92.312 321.645,92.569 321.597,92.722 321.378 C 92.875 321.159,94.665 319.566,96.700 317.839 C 99.962 315.071,100.682 314.384,100.300 314.406 C 100.245 314.409,99.157 315.331,97.882 316.454 M76.207 316.393 C 75.352 317.269,74.730 318.045,74.826 318.118 C 74.922 318.191,75.698 317.474,76.552 316.525 C 78.501 314.359,78.277 314.273,76.207 316.393 M282.172 319.500 C 281.554 320.325,279.688 322.452,278.024 324.227 L 275.000 327.454 278.411 324.027 C 281.476 320.948,283.953 318.000,283.475 318.000 C 283.376 318.000,282.790 318.675,282.172 319.500 M70.581 322.900 L 69.000 324.600 70.700 323.019 C 72.281 321.548,72.584 321.200,72.281 321.200 C 72.216 321.200,71.451 321.965,70.581 322.900 M64.806 329.394 C 64.063 330.161,63.532 330.850,63.627 330.925 C 63.722 331.000,64.406 330.373,65.146 329.531 C 66.829 327.618,66.612 327.531,64.806 329.394 M270.800 330.449 C 269.406 331.671,269.405 331.672,270.688 330.819 C 271.396 330.348,272.082 329.791,272.212 329.581 C 272.597 328.957,272.277 329.154,270.800 330.449 M60.609 334.278 C 59.394 335.751,58.400 337.101,58.400 337.278 C 58.400 337.920,59.031 337.529,60.600 335.914 C 61.480 335.008,61.885 334.499,61.500 334.783 C 60.409 335.586,60.675 334.734,62.029 333.091 C 62.705 332.271,63.159 331.600,63.038 331.600 C 62.917 331.600,61.824 332.805,60.609 334.278 M265.400 334.000 C 264.740 334.437,264.380 334.792,264.600 334.788 C 265.001 334.782,267.176 333.223,266.800 333.212 C 266.690 333.208,266.060 333.563,265.400 334.000 M256.200 338.214 C 254.585 338.954,255.551 338.955,257.254 338.216 C 257.994 337.894,258.330 337.639,258.000 337.648 C 257.670 337.657,256.860 337.912,256.200 338.214 M246.000 341.600 C 245.176 341.864,245.141 341.926,245.800 341.954 C 246.240 341.973,246.870 341.813,247.200 341.600 C 247.901 341.147,247.414 341.147,246.000 341.600 M242.800 342.400 C 241.416 342.691,241.414 342.695,242.600 342.741 C 243.260 342.767,244.070 342.613,244.400 342.400 C 245.066 341.970,244.845 341.970,242.800 342.400 M237.905 343.483 C 238.402 343.579,239.122 343.575,239.505 343.475 C 239.887 343.375,239.480 343.296,238.600 343.301 C 237.720 343.305,237.407 343.387,237.905 343.483 M233.105 344.283 C 233.602 344.379,234.322 344.375,234.705 344.275 C 235.087 344.175,234.680 344.096,233.800 344.101 C 232.920 344.105,232.607 344.187,233.105 344.283 M227.107 345.090 C 227.826 345.179,228.906 345.177,229.507 345.086 C 230.108 344.995,229.520 344.922,228.200 344.924 C 226.880 344.926,226.388 345.001,227.107 345.090 M212.500 345.897 C 214.205 345.972,216.995 345.972,218.700 345.897 C 220.405 345.822,219.010 345.761,215.600 345.761 C 212.190 345.761,210.795 345.822,212.500 345.897 " stroke="none" fill="#3974bf" fill-rule="evenodd"></path></g></svg>